<?xml version="1.0" encoding="UTF-8" standalone="no"?>
<svg
   xmlns:dc="http://purl.org/dc/elements/1.1/"
   xmlns:cc="http://creativecommons.org/ns#"
   xmlns:rdf="http://www.w3.org/1999/02/22-rdf-syntax-ns#"
   xmlns:svg="http://www.w3.org/2000/svg"
   xmlns="http://www.w3.org/2000/svg"
   viewBox="0 0 327.56 247.34666"
   height="494.69332"
   width="655.12"
   xml:space="preserve"
   id="svg2"
   version="1.1"><metadata
     id="metadata8"><rdf:RDF><cc:Work
         rdf:about=""><dc:format>image/svg+xml</dc:format><dc:type
           rdf:resource="http://purl.org/dc/dcmitype/StillImage" /></cc:Work></rdf:RDF></metadata><defs
     id="defs6" /><g
     transform="matrix(1.3333333,0,0,-1.3333333,0,247.34667)"
     id="g10"><g
       transform="translate(72,113.51)"
       id="g12"><g
         transform="translate(50.833,64.284)"
         id="g14"><g
           id="g16"><g
             id="g18"><g
               id="g20"><g
                 id="g22"><g
                   transform="scale(-1)"
                   id="g24"><g
                     id="g26" /><g
                     transform="rotate(180,25.4165,32.142)"
                     id="g28"><g
                       id="g30" /><g
                       transform="translate(-38.307,-2.819)"
                       id="g32"><g
                         id="g34"><text
                           id="text38"
                           style="font-variant:normal;font-weight:normal;font-size:9.96259975px;font-family:'Open Sans';-inkscape-font-specification:OpenSans;writing-mode:lr-tb;fill:#000000;fill-opacity:1;fill-rule:nonzero;stroke:none"
                           transform="matrix(1,0,0,-1,50.833,64.284)"><tspan
                             id="tspan36"
                             y="0"
                             x="0 3.2776954 8.9763021 13.997453 19.69606 24.727173 30.425781 35.456894 41.155502 46.186615 51.88522 56.906372 62.604977 67.636093 73.334702">[4,3,8,2,7,1,5]</tspan></text>
</g></g><g
                       transform="translate(50.833,64.284)"
                       id="g40" /></g></g></g></g><g
               id="g42"><g
                 id="g44"><g
                   transform="scale(-1)"
                   id="g46"><g
                     id="g48" /><g
                     transform="rotate(180,25.4165,32.142)"
                     id="g50"><g
                       id="g52" /><g
                       transform="translate(-93.084,-31.166)"
                       id="g54"><g
                         id="g56"><text
                           id="text60"
                           style="font-variant:normal;font-weight:normal;font-size:9.96259975px;font-family:'Open Sans';-inkscape-font-specification:OpenSans;writing-mode:lr-tb;fill:#000000;fill-opacity:1;fill-rule:nonzero;stroke:none"
                           transform="matrix(1,0,0,-1,50.833,64.284)"><tspan
                             id="tspan58"
                             y="0"
                             x="0 3.2776954 8.9763021 13.997453 19.69606 24.727173 30.425781 35.456894 41.155502">[4,3,8,2]</tspan></text>
</g></g><g
                       transform="translate(50.833,64.284)"
                       id="g62" /></g></g></g></g><g
               id="g64"><g
                 id="g66"><g
                   transform="scale(-1)"
                   id="g68"><g
                     id="g70" /><g
                     transform="rotate(180,25.4165,32.142)"
                     id="g72"><g
                       id="g74" /><g
                       transform="translate(-110.704,-59.513)"
                       id="g76"><g
                         id="g78"><text
                           id="text82"
                           style="font-variant:normal;font-weight:normal;font-size:9.96259975px;font-family:'Open Sans';-inkscape-font-specification:OpenSans;writing-mode:lr-tb;fill:#000000;fill-opacity:1;fill-rule:nonzero;stroke:none"
                           transform="matrix(1,0,0,-1,50.833,64.284)"><tspan
                             id="tspan80"
                             y="0"
                             x="0 3.2776954 8.9763021 13.997453 19.69606">[4,3]</tspan></text>
</g></g><g
                       transform="translate(50.833,64.284)"
                       id="g84" /></g></g></g></g><g
               id="g86"><g
                 id="g88"><g
                   transform="scale(-1)"
                   id="g90"><g
                     id="g92" /><g
                     transform="rotate(180,25.4165,32.142)"
                     id="g94"><g
                       id="g96" /><g
                       transform="translate(-54.01,-59.513)"
                       id="g98"><g
                         id="g100"><text
                           id="text104"
                           style="font-variant:normal;font-weight:normal;font-size:9.96259975px;font-family:'Open Sans';-inkscape-font-specification:OpenSans;writing-mode:lr-tb;fill:#000000;fill-opacity:1;fill-rule:nonzero;stroke:none"
                           transform="matrix(1,0,0,-1,50.833,64.284)"><tspan
                             id="tspan102"
                             y="0"
                             x="0 3.2776954 8.9763021 13.997453 19.69606">[8,2]</tspan></text>
</g></g><g
                       transform="translate(50.833,64.284)"
                       id="g106" /></g></g></g></g><g
               id="g108"><g
                 id="g110"><g
                   transform="scale(-1)"
                   id="g112"><g
                     id="g114" /><g
                     transform="rotate(180,25.4165,32.142)"
                     id="g116"><g
                       id="g118" /><g
                       transform="translate(-119.514,-87.828)"
                       id="g120"><g
                         id="g122"><text
                           id="text126"
                           style="font-variant:normal;font-weight:normal;font-size:9.96259975px;font-family:'Open Sans';-inkscape-font-specification:OpenSans;writing-mode:lr-tb;fill:#000000;fill-opacity:1;fill-rule:nonzero;stroke:none"
                           transform="matrix(1,0,0,-1,50.833,64.284)"><tspan
                             id="tspan124"
                             y="0"
                             x="0 3.2776954 8.9763021">[4]</tspan></text>
</g></g><g
                       transform="translate(50.833,64.284)"
                       id="g128" /></g></g></g></g><g
               id="g130"><g
                 id="g132"><g
                   transform="scale(-1)"
                   id="g134"><g
                     id="g136" /><g
                     transform="rotate(180,25.4165,32.142)"
                     id="g138"><g
                       id="g140" /><g
                       transform="translate(-91.167,-87.859)"
                       id="g142"><g
                         id="g144"><text
                           id="text148"
                           style="font-variant:normal;font-weight:normal;font-size:9.96259975px;font-family:'Open Sans';-inkscape-font-specification:OpenSans;writing-mode:lr-tb;fill:#000000;fill-opacity:1;fill-rule:nonzero;stroke:none"
                           transform="matrix(1,0,0,-1,50.833,64.284)"><tspan
                             id="tspan146"
                             y="0"
                             x="0 3.2776954 8.9763021">[3]</tspan></text>
</g></g><g
                       transform="translate(50.833,64.284)"
                       id="g150" /></g></g></g></g><g
               id="g152"><g
                 id="g154"><g
                   transform="scale(-1)"
                   id="g156"><g
                     id="g158" /><g
                     transform="rotate(180,25.4165,32.142)"
                     id="g160"><g
                       id="g162" /><g
                       transform="translate(-62.821,-87.859)"
                       id="g164"><g
                         id="g166"><text
                           id="text170"
                           style="font-variant:normal;font-weight:normal;font-size:9.96259975px;font-family:'Open Sans';-inkscape-font-specification:OpenSans;writing-mode:lr-tb;fill:#000000;fill-opacity:1;fill-rule:nonzero;stroke:none"
                           transform="matrix(1,0,0,-1,50.833,64.284)"><tspan
                             id="tspan168"
                             y="0"
                             x="0 3.2776954 8.9763021">[8]</tspan></text>
</g></g><g
                       transform="translate(50.833,64.284)"
                       id="g172" /></g></g></g></g><g
               id="g174"><g
                 id="g176"><g
                   transform="scale(-1)"
                   id="g178"><g
                     id="g180" /><g
                     transform="rotate(180,25.4165,32.142)"
                     id="g182"><g
                       id="g184" /><g
                       transform="translate(-34.474,-87.859)"
                       id="g186"><g
                         id="g188"><text
                           id="text192"
                           style="font-variant:normal;font-weight:normal;font-size:9.96259975px;font-family:'Open Sans';-inkscape-font-specification:OpenSans;writing-mode:lr-tb;fill:#000000;fill-opacity:1;fill-rule:nonzero;stroke:none"
                           transform="matrix(1,0,0,-1,50.833,64.284)"><tspan
                             id="tspan190"
                             y="0"
                             x="0 3.2776954 8.9763021">[2]</tspan></text>
</g></g><g
                       transform="translate(50.833,64.284)"
                       id="g194" /></g></g></g></g><g
               id="g196"><g
                 id="g198"><g
                   transform="scale(-1)"
                   id="g200"><g
                     id="g202" /><g
                     transform="rotate(180,25.4165,32.142)"
                     id="g204"><g
                       id="g206" /><g
                       transform="translate(-110.704,-116.206)"
                       id="g208"><g
                         id="g210"><text
                           id="text214"
                           style="font-variant:normal;font-weight:normal;font-size:9.96259975px;font-family:'Open Sans';-inkscape-font-specification:OpenSans;writing-mode:lr-tb;fill:#000000;fill-opacity:1;fill-rule:nonzero;stroke:none"
                           transform="matrix(1,0,0,-1,50.833,64.284)"><tspan
                             id="tspan212"
                             y="0"
                             x="0 3.2776954 8.9763021 13.997453 19.69606">[3,4]</tspan></text>
</g></g><g
                       transform="translate(50.833,64.284)"
                       id="g216" /></g></g></g></g><g
               id="g218"><g
                 id="g220"><g
                   transform="scale(-1)"
                   id="g222"><g
                     id="g224" /><g
                     transform="rotate(180,25.4165,32.142)"
                     id="g226"><g
                       id="g228" /><g
                       transform="translate(-54.01,-116.206)"
                       id="g230"><g
                         id="g232"><text
                           id="text236"
                           style="font-variant:normal;font-weight:normal;font-size:9.96259975px;font-family:'Open Sans';-inkscape-font-specification:OpenSans;writing-mode:lr-tb;fill:#000000;fill-opacity:1;fill-rule:nonzero;stroke:none"
                           transform="matrix(1,0,0,-1,50.833,64.284)"><tspan
                             id="tspan234"
                             y="0"
                             x="0 3.2776954 8.9763021 13.997453 19.69606">[2,8]</tspan></text>
</g></g><g
                       transform="translate(50.833,64.284)"
                       id="g238" /></g></g></g></g><g
               id="g240"><g
                 id="g242"><g
                   transform="scale(-1)"
                   id="g244"><g
                     id="g246" /><g
                     transform="rotate(180,25.4165,32.142)"
                     id="g248"><g
                       id="g250" /><g
                       transform="translate(-93.084,-144.553)"
                       id="g252"><g
                         id="g254"><text
                           id="text258"
                           style="font-variant:normal;font-weight:normal;font-size:9.96259975px;font-family:'Open Sans';-inkscape-font-specification:OpenSans;writing-mode:lr-tb;fill:#000000;fill-opacity:1;fill-rule:nonzero;stroke:none"
                           transform="matrix(1,0,0,-1,50.833,64.284)"><tspan
                             id="tspan256"
                             y="0"
                             x="0 3.2776954 8.9763021 13.997453 19.69606 24.727173 30.425781 35.456894 41.155502">[2,3,4,8]</tspan></text>
</g></g><g
                       transform="translate(50.833,64.284)"
                       id="g260" /></g></g></g></g><g
               id="g262"><g
                 id="g264"><g
                   transform="scale(-1)"
                   id="g266"><g
                     id="g268" /><g
                     transform="rotate(180,25.4165,32.142)"
                     id="g270"><g
                       id="g272" /><g
                       transform="translate(-38.307,-172.9)"
                       id="g274"><g
                         id="g276"><text
                           id="text280"
                           style="font-variant:normal;font-weight:normal;font-size:9.96259975px;font-family:'Open Sans';-inkscape-font-specification:OpenSans;writing-mode:lr-tb;fill:#000000;fill-opacity:1;fill-rule:nonzero;stroke:none"
                           transform="matrix(1,0,0,-1,50.833,64.284)"><tspan
                             id="tspan278"
                             y="0"
                             x="0 3.2776954 8.9763021 13.997453 19.69606 24.727173 30.425781 35.456894 41.155502 46.186615 51.88522 56.906372 62.604977 67.636093 73.334702">[1,2,3,4,5,7,8]</tspan></text>
</g></g><g
                       transform="translate(50.833,64.284)"
                       id="g282" /></g></g></g></g><g
               id="g284"><g
                 id="g286"><g
                   transform="scale(-1)"
                   id="g288"><g
                     id="g290" /><g
                     transform="rotate(180,25.4165,32.142)"
                     id="g292"><g
                       id="g294" /><g
                       transform="translate(54.013,-31.115)"
                       id="g296"><g
                         id="g298"><text
                           id="text302"
                           style="font-variant:normal;font-weight:normal;font-size:9.96259975px;font-family:'Open Sans';-inkscape-font-specification:OpenSans;writing-mode:lr-tb;fill:#000000;fill-opacity:1;fill-rule:nonzero;stroke:none"
                           transform="matrix(1,0,0,-1,50.833,64.284)"><tspan
                             id="tspan300"
                             y="0"
                             x="0 3.2776954 8.9763021 13.997453 19.69606 24.727173 30.425781">[7,1,5]</tspan></text>
</g></g><g
                       transform="translate(50.833,64.284)"
                       id="g304" /></g></g></g></g><g
               id="g306"><g
                 id="g308"><g
                   transform="scale(-1)"
                   id="g310"><g
                     id="g312" /><g
                     transform="rotate(180,25.4165,32.142)"
                     id="g314"><g
                       id="g316" /><g
                       transform="translate(22.22,-87.808)"
                       id="g318"><g
                         id="g320"><text
                           id="text324"
                           style="font-variant:normal;font-weight:normal;font-size:9.96259975px;font-family:'Open Sans';-inkscape-font-specification:OpenSans;writing-mode:lr-tb;fill:#000000;fill-opacity:1;fill-rule:nonzero;stroke:none"
                           transform="matrix(1,0,0,-1,50.833,64.284)"><tspan
                             id="tspan322"
                             y="0"
                             x="0 3.2776954 8.9763021">[7]</tspan></text>
</g></g><g
                       transform="translate(50.833,64.284)"
                       id="g326" /></g></g></g></g><g
               id="g328"><g
                 id="g330"><g
                   transform="scale(-1)"
                   id="g332"><g
                     id="g334" /><g
                     transform="rotate(180,25.4165,32.142)"
                     id="g336"><g
                       id="g338" /><g
                       transform="translate(87.724,-59.462)"
                       id="g340"><g
                         id="g342"><text
                           id="text346"
                           style="font-variant:normal;font-weight:normal;font-size:9.96259975px;font-family:'Open Sans';-inkscape-font-specification:OpenSans;writing-mode:lr-tb;fill:#000000;fill-opacity:1;fill-rule:nonzero;stroke:none"
                           transform="matrix(1,0,0,-1,50.833,64.284)"><tspan
                             id="tspan344"
                             y="0"
                             x="0 3.2776954 8.9763021 13.997453 19.69606">[1,5]</tspan></text>
</g></g><g
                       transform="translate(50.833,64.284)"
                       id="g348" /></g></g></g></g><g
               id="g350"><g
                 id="g352"><g
                   transform="scale(-1)"
                   id="g354"><g
                     id="g356" /><g
                     transform="rotate(180,25.4165,32.142)"
                     id="g358"><g
                       id="g360" /><g
                       transform="translate(78.913,-87.808)"
                       id="g362"><g
                         id="g364"><text
                           id="text368"
                           style="font-variant:normal;font-weight:normal;font-size:9.96259975px;font-family:'Open Sans';-inkscape-font-specification:OpenSans;writing-mode:lr-tb;fill:#000000;fill-opacity:1;fill-rule:nonzero;stroke:none"
                           transform="matrix(1,0,0,-1,50.833,64.284)"><tspan
                             id="tspan366"
                             y="0"
                             x="0 3.2776954 8.9763021">[1]</tspan></text>
</g></g><g
                       transform="translate(50.833,64.284)"
                       id="g370" /></g></g></g></g><g
               id="g372"><g
                 id="g374"><g
                   transform="scale(-1)"
                   id="g376"><g
                     id="g378" /><g
                     transform="rotate(180,25.4165,32.142)"
                     id="g380"><g
                       id="g382" /><g
                       transform="translate(107.26,-87.808)"
                       id="g384"><g
                         id="g386"><text
                           id="text390"
                           style="font-variant:normal;font-weight:normal;font-size:9.96259975px;font-family:'Open Sans';-inkscape-font-specification:OpenSans;writing-mode:lr-tb;fill:#000000;fill-opacity:1;fill-rule:nonzero;stroke:none"
                           transform="matrix(1,0,0,-1,50.833,64.284)"><tspan
                             id="tspan388"
                             y="0"
                             x="0 3.2776954 8.9763021">[5]</tspan></text>
</g></g><g
                       transform="translate(50.833,64.284)"
                       id="g392" /></g></g></g></g><g
               id="g394"><g
                 id="g396"><g
                   transform="scale(-1)"
                   id="g398"><g
                     id="g400" /><g
                     transform="rotate(180,25.4165,32.142)"
                     id="g402"><g
                       id="g404" /><g
                       transform="translate(87.724,-116.155)"
                       id="g406"><g
                         id="g408"><text
                           id="text412"
                           style="font-variant:normal;font-weight:normal;font-size:9.96259975px;font-family:'Open Sans';-inkscape-font-specification:OpenSans;writing-mode:lr-tb;fill:#000000;fill-opacity:1;fill-rule:nonzero;stroke:none"
                           transform="matrix(1,0,0,-1,50.833,64.284)"><tspan
                             id="tspan410"
                             y="0"
                             x="0 3.2776954 8.9763021 13.997453 19.69606">[1,5]</tspan></text>
</g></g><g
                       transform="translate(50.833,64.284)"
                       id="g414" /></g></g></g></g><g
               id="g416"><g
                 id="g418"><g
                   transform="scale(-1)"
                   id="g420"><g
                     id="g422" /><g
                     transform="rotate(180,25.4165,32.142)"
                     id="g424"><g
                       id="g426" /><g
                       transform="translate(54.013,-144.502)"
                       id="g428"><g
                         id="g430"><text
                           id="text434"
                           style="font-variant:normal;font-weight:normal;font-size:9.96259975px;font-family:'Open Sans';-inkscape-font-specification:OpenSans;writing-mode:lr-tb;fill:#000000;fill-opacity:1;fill-rule:nonzero;stroke:none"
                           transform="matrix(1,0,0,-1,50.833,64.284)"><tspan
                             id="tspan432"
                             y="0"
                             x="0 3.2776954 8.9763021 13.997453 19.69606 24.727173 30.425781">[1,5,7]</tspan></text>
</g></g><g
                       transform="translate(50.833,64.284)"
                       id="g436" /></g></g></g></g><path
               id="path438"
               style="fill:none;stroke:#000000;stroke-width:0.3985;stroke-linecap:butt;stroke-linejoin:miter;stroke-miterlimit:10;stroke-dasharray:none;stroke-opacity:1"
               d="M -19.78484,-7.915 -47.75243,-19.1001" /><g
               transform="matrix(-0.92847,-0.3713,0.3713,-0.92847,-47.75241,-19.1001)"
               id="g440"><g
                 id="g442"><path
                   id="path444"
                   style="fill:#000000;fill-opacity:1;fill-rule:nonzero;stroke:none"
                   d="M 3.58653,0 C 2.52383,0.19925 0.797,0.797 -0.3985,1.49438 V -1.49438 C 0.797,-0.797 2.52383,-0.19925 3.58653,0" /></g></g><path
               id="path446"
               style="fill:none;stroke:#000000;stroke-width:0.3985;stroke-linecap:butt;stroke-linejoin:miter;stroke-miterlimit:10;stroke-dasharray:none;stroke-opacity:1"
               d="M 19.78459,-7.915 47.88011,-19.15117" /><g
               transform="matrix(0.92847,-0.3713,0.3713,0.92847,47.8801,-19.15117)"
               id="g448"><g
                 id="g450"><path
                   id="path452"
                   style="fill:#000000;fill-opacity:1;fill-rule:nonzero;stroke:none"
                   d="M 3.58653,0 C 2.52383,0.19925 0.797,0.797 -0.3985,1.49438 V -1.49438 C 0.797,-0.797 2.52383,-0.19925 3.58653,0" /></g></g><path
               id="path454"
               style="fill:none;stroke:#000000;stroke-width:0.3985;stroke-linecap:butt;stroke-linejoin:miter;stroke-miterlimit:10;stroke-dasharray:none;stroke-opacity:1"
               d="m -78.78091,-36.26181 -9.9829,-9.981" /><g
               transform="matrix(-0.70715,-0.70703,0.70703,-0.70715,-88.7638,-46.24281)"
               id="g456"><g
                 id="g458"><path
                   id="path460"
                   style="fill:#000000;fill-opacity:1;fill-rule:nonzero;stroke:none"
                   d="M 3.58653,0 C 2.52383,0.19925 0.797,0.797 -0.3985,1.49438 V -1.49438 C 0.797,-0.797 2.52383,-0.19925 3.58653,0" /></g></g><path
               id="path462"
               style="fill:none;stroke:#000000;stroke-width:0.3985;stroke-linecap:butt;stroke-linejoin:miter;stroke-miterlimit:10;stroke-dasharray:none;stroke-opacity:1"
               d="m -62.95311,-36.26181 9.98291,-9.981" /><g
               transform="matrix(0.70715,-0.70703,0.70703,0.70715,-52.97021,-46.24281)"
               id="g464"><g
                 id="g466"><path
                   id="path468"
                   style="fill:#000000;fill-opacity:1;fill-rule:nonzero;stroke:none"
                   d="M 3.58653,0 C 2.52383,0.19925 0.797,0.797 -0.3985,1.49438 V -1.49438 C 0.797,-0.797 2.52383,-0.19925 3.58653,0" /></g></g><path
               id="path470"
               style="fill:none;stroke:#000000;stroke-width:0.3985;stroke-linecap:butt;stroke-linejoin:miter;stroke-miterlimit:10;stroke-dasharray:none;stroke-opacity:1"
               d="M 64.9692,-36.21072 36.39331,-74.30748" /><g
               transform="matrix(-0.60004,-0.79994,0.79994,-0.60004,36.39331,-74.30748)"
               id="g472"><g
                 id="g474"><path
                   id="path476"
                   style="fill:#000000;fill-opacity:1;fill-rule:nonzero;stroke:none"
                   d="M 3.58653,0 C 2.52383,0.19925 0.797,0.797 -0.3985,1.49438 V -1.49438 C 0.797,-0.797 2.52383,-0.19925 3.58653,0" /></g></g><path
               id="path478"
               style="fill:none;stroke:#000000;stroke-width:0.3985;stroke-linecap:butt;stroke-linejoin:miter;stroke-miterlimit:10;stroke-dasharray:none;stroke-opacity:1"
               d="M 78.72974,-36.21072 88.81488,-46.2939" /><g
               transform="matrix(0.70715,-0.70703,0.70703,0.70715,88.81487,-46.2939)"
               id="g480"><g
                 id="g482"><path
                   id="path484"
                   style="fill:#000000;fill-opacity:1;fill-rule:nonzero;stroke:none"
                   d="M 3.58653,0 C 2.52383,0.19925 0.797,0.797 -0.3985,1.49438 V -1.49438 C 0.797,-0.797 2.52383,-0.19925 3.58653,0" /></g></g><path
               id="path486"
               style="fill:none;stroke:#000000;stroke-width:0.3985;stroke-linecap:butt;stroke-linejoin:miter;stroke-miterlimit:10;stroke-dasharray:none;stroke-opacity:1"
               d="m -103.17072,-64.60861 -4.67137,-9.34082" /><g
               transform="matrix(-0.44725,-0.89435,0.89435,-0.44725,-107.84207,-73.94942)"
               id="g488"><g
                 id="g490"><path
                   id="path492"
                   style="fill:#000000;fill-opacity:1;fill-rule:nonzero;stroke:none"
                   d="M 3.58653,0 C 2.52383,0.19925 0.797,0.797 -0.3985,1.49438 V -1.49438 C 0.797,-0.797 2.52383,-0.19925 3.58653,0" /></g></g><path
               id="path494"
               style="fill:none;stroke:#000000;stroke-width:0.3985;stroke-linecap:butt;stroke-linejoin:miter;stroke-miterlimit:10;stroke-dasharray:none;stroke-opacity:1"
               d="m -95.25693,-64.60861 4.65555,-9.30921" /><g
               transform="matrix(0.44725,-0.89435,0.89435,0.44725,-90.6014,-73.9178)"
               id="g496"><g
                 id="g498"><path
                   id="path500"
                   style="fill:#000000;fill-opacity:1;fill-rule:nonzero;stroke:none"
                   d="M 3.58653,0 C 2.52383,0.19925 0.797,0.797 -0.3985,1.49438 V -1.49438 C 0.797,-0.797 2.52383,-0.19925 3.58653,0" /></g></g><path
               id="path502"
               style="fill:none;stroke:#000000;stroke-width:0.3985;stroke-linecap:butt;stroke-linejoin:miter;stroke-miterlimit:10;stroke-dasharray:none;stroke-opacity:1"
               d="m -46.4771,-64.60861 -4.65556,-9.30921" /><g
               transform="matrix(-0.44725,-0.89435,0.89435,-0.44725,-51.13264,-73.9178)"
               id="g504"><g
                 id="g506"><path
                   id="path508"
                   style="fill:#000000;fill-opacity:1;fill-rule:nonzero;stroke:none"
                   d="M 3.58653,0 C 2.52383,0.19925 0.797,0.797 -0.3985,1.49438 V -1.49438 C 0.797,-0.797 2.52383,-0.19925 3.58653,0" /></g></g><path
               id="path510"
               style="fill:none;stroke:#000000;stroke-width:0.3985;stroke-linecap:butt;stroke-linejoin:miter;stroke-miterlimit:10;stroke-dasharray:none;stroke-opacity:1"
               d="m -38.56331,-64.60861 4.65555,-9.30921" /><g
               transform="matrix(0.44725,-0.89435,0.89435,0.44725,-33.90778,-73.9178)"
               id="g512"><g
                 id="g514"><path
                   id="path516"
                   style="fill:#000000;fill-opacity:1;fill-rule:nonzero;stroke:none"
                   d="M 3.58653,0 C 2.52383,0.19925 0.797,0.797 -0.3985,1.49438 V -1.49438 C 0.797,-0.797 2.52383,-0.19925 3.58653,0" /></g></g><path
               id="path518"
               style="fill:none;stroke:#000000;stroke-width:0.3985;stroke-linecap:butt;stroke-linejoin:miter;stroke-miterlimit:10;stroke-dasharray:none;stroke-opacity:1"
               d="M 95.28247,-64.55754 90.57584,-73.9689" /><g
               transform="matrix(-0.44725,-0.89435,0.89435,-0.44725,90.57585,-73.96889)"
               id="g520"><g
                 id="g522"><path
                   id="path524"
                   style="fill:#000000;fill-opacity:1;fill-rule:nonzero;stroke:none"
                   d="M 3.58653,0 C 2.52383,0.19925 0.797,0.797 -0.3985,1.49438 V -1.49438 C 0.797,-0.797 2.52383,-0.19925 3.58653,0" /></g></g><path
               id="path526"
               style="fill:none;stroke:#000000;stroke-width:0.3985;stroke-linecap:butt;stroke-linejoin:miter;stroke-miterlimit:10;stroke-dasharray:none;stroke-opacity:1"
               d="m 103.14517,-64.55754 4.70663,-9.41136" /><g
               transform="matrix(0.44725,-0.89435,0.89435,0.44725,107.85179,-73.96889)"
               id="g528"><g
                 id="g530"><path
                   id="path532"
                   style="fill:#000000;fill-opacity:1;fill-rule:nonzero;stroke:none"
                   d="M 3.58653,0 C 2.52383,0.19925 0.797,0.797 -0.3985,1.49438 V -1.49438 C 0.797,-0.797 2.52383,-0.19925 3.58653,0" /></g></g><path
               id="path534"
               style="fill:none;stroke:#000000;stroke-width:0.3985;stroke-linecap:butt;stroke-linejoin:miter;stroke-miterlimit:10;stroke-dasharray:none;stroke-opacity:1"
               d="m -109.44615,-92.9238 4.67137,-9.34083" /><g
               transform="matrix(0.44725,-0.89435,0.89435,0.44725,-104.7748,-102.26462)"
               id="g536"><g
                 id="g538"><path
                   id="path540"
                   style="fill:#000000;fill-opacity:1;fill-rule:nonzero;stroke:none"
                   d="M 3.58653,0 C 2.52383,0.19925 0.797,0.797 -0.3985,1.49438 V -1.49438 C 0.797,-0.797 2.52383,-0.19925 3.58653,0" /></g></g><path
               id="path542"
               style="fill:none;stroke:#000000;stroke-width:0.3985;stroke-linecap:butt;stroke-linejoin:miter;stroke-miterlimit:10;stroke-dasharray:none;stroke-opacity:1"
               d="m -88.99731,-92.95543 -4.65555,-9.3092" /><g
               transform="matrix(-0.44725,-0.89435,0.89435,-0.44725,-93.65285,-102.26462)"
               id="g544"><g
                 id="g546"><path
                   id="path548"
                   style="fill:#000000;fill-opacity:1;fill-rule:nonzero;stroke:none"
                   d="M 3.58653,0 C 2.52383,0.19925 0.797,0.797 -0.3985,1.49438 V -1.49438 C 0.797,-0.797 2.52383,-0.19925 3.58653,0" /></g></g><path
               id="path550"
               style="fill:none;stroke:#000000;stroke-width:0.3985;stroke-linecap:butt;stroke-linejoin:miter;stroke-miterlimit:10;stroke-dasharray:none;stroke-opacity:1"
               d="m -52.73672,-92.95543 4.65556,-9.3092" /><g
               transform="matrix(0.44725,-0.89435,0.89435,0.44725,-48.08118,-102.26462)"
               id="g552"><g
                 id="g554"><path
                   id="path556"
                   style="fill:#000000;fill-opacity:1;fill-rule:nonzero;stroke:none"
                   d="M 3.58653,0 C 2.52383,0.19925 0.797,0.797 -0.3985,1.49438 V -1.49438 C 0.797,-0.797 2.52383,-0.19925 3.58653,0" /></g></g><path
               id="path558"
               style="fill:none;stroke:#000000;stroke-width:0.3985;stroke-linecap:butt;stroke-linejoin:miter;stroke-miterlimit:10;stroke-dasharray:none;stroke-opacity:1"
               d="m -32.3037,-92.95543 -4.65554,-9.3092" /><g
               transform="matrix(-0.44725,-0.89435,0.89435,-0.44725,-36.95923,-102.26462)"
               id="g560"><g
                 id="g562"><path
                   id="path564"
                   style="fill:#000000;fill-opacity:1;fill-rule:nonzero;stroke:none"
                   d="M 3.58653,0 C 2.52383,0.19925 0.797,0.797 -0.3985,1.49438 V -1.49438 C 0.797,-0.797 2.52383,-0.19925 3.58653,0" /></g></g><path
               id="path566"
               style="fill:none;stroke:#000000;stroke-width:0.3985;stroke-linecap:butt;stroke-linejoin:miter;stroke-miterlimit:10;stroke-dasharray:none;stroke-opacity:1"
               d="m 88.97177,-92.90434 4.70663,-9.41136" /><g
               transform="matrix(0.44725,-0.89435,0.89435,0.44725,93.67839,-102.31569)"
               id="g568"><g
                 id="g570"><path
                   id="path572"
                   style="fill:#000000;fill-opacity:1;fill-rule:nonzero;stroke:none"
                   d="M 3.58653,0 C 2.52383,0.19925 0.797,0.797 -0.3985,1.49438 V -1.49438 C 0.797,-0.797 2.52383,-0.19925 3.58653,0" /></g></g><path
               id="path574"
               style="fill:none;stroke:#000000;stroke-width:0.3985;stroke-linecap:butt;stroke-linejoin:miter;stroke-miterlimit:10;stroke-dasharray:none;stroke-opacity:1"
               d="m 109.45587,-92.90434 -4.70663,-9.41136" /><g
               transform="matrix(-0.44725,-0.89435,0.89435,-0.44725,104.74925,-102.31569)"
               id="g576"><g
                 id="g578"><path
                   id="path580"
                   style="fill:#000000;fill-opacity:1;fill-rule:nonzero;stroke:none"
                   d="M 3.58653,0 C 2.52383,0.19925 0.797,0.797 -0.3985,1.49438 V -1.49438 C 0.797,-0.797 2.52383,-0.19925 3.58653,0" /></g></g><path
               id="path582"
               style="fill:none;stroke:#000000;stroke-width:0.3985;stroke-linecap:butt;stroke-linejoin:miter;stroke-miterlimit:10;stroke-dasharray:none;stroke-opacity:1"
               d="m -91.29991,-121.30223 9.98289,-9.98102" /><g
               transform="matrix(0.70715,-0.70703,0.70703,0.70715,-81.31703,-131.28325)"
               id="g584"><g
                 id="g586"><path
                   id="path588"
                   style="fill:#000000;fill-opacity:1;fill-rule:nonzero;stroke:none"
                   d="M 3.58653,0 C 2.52383,0.19925 0.797,0.797 -0.3985,1.49438 V -1.49438 C 0.797,-0.797 2.52383,-0.19925 3.58653,0" /></g></g><path
               id="path590"
               style="fill:none;stroke:#000000;stroke-width:0.3985;stroke-linecap:butt;stroke-linejoin:miter;stroke-miterlimit:10;stroke-dasharray:none;stroke-opacity:1"
               d="m -50.43411,-121.30223 -9.98289,-9.98102" /><g
               transform="matrix(-0.70715,-0.70703,0.70703,-0.70715,-60.41699,-131.28325)"
               id="g592"><g
                 id="g594"><path
                   id="path596"
                   style="fill:#000000;fill-opacity:1;fill-rule:nonzero;stroke:none"
                   d="M 3.58653,0 C 2.52383,0.19925 0.797,0.797 -0.3985,1.49438 V -1.49438 C 0.797,-0.797 2.52383,-0.19925 3.58653,0" /></g></g><path
               id="path598"
               style="fill:none;stroke:#000000;stroke-width:0.3985;stroke-linecap:butt;stroke-linejoin:miter;stroke-miterlimit:10;stroke-dasharray:none;stroke-opacity:1"
               d="M 91.3511,-121.25116 81.26596,-131.33432" /><g
               transform="matrix(-0.70715,-0.70703,0.70703,-0.70715,81.26598,-131.33432)"
               id="g600"><g
                 id="g602"><path
                   id="path604"
                   style="fill:#000000;fill-opacity:1;fill-rule:nonzero;stroke:none"
                   d="M 3.58653,0 C 2.52383,0.19925 0.797,0.797 -0.3985,1.49438 V -1.49438 C 0.797,-0.797 2.52383,-0.19925 3.58653,0" /></g></g><path
               id="path606"
               style="fill:none;stroke:#000000;stroke-width:0.3985;stroke-linecap:butt;stroke-linejoin:miter;stroke-miterlimit:10;stroke-dasharray:none;stroke-opacity:1"
               d="M 34.24463,-92.90434 62.8205,-131.0011" /><g
               transform="matrix(0.60004,-0.79994,0.79994,0.60004,62.8205,-131.0011)"
               id="g608"><g
                 id="g610"><path
                   id="path612"
                   style="fill:#000000;fill-opacity:1;fill-rule:nonzero;stroke:none"
                   d="M 3.58653,0 C 2.52383,0.19925 0.797,0.797 -0.3985,1.49438 V -1.49438 C 0.797,-0.797 2.52383,-0.19925 3.58653,0" /></g></g><path
               id="path614"
               style="fill:none;stroke:#000000;stroke-width:0.3985;stroke-linecap:butt;stroke-linejoin:miter;stroke-miterlimit:10;stroke-dasharray:none;stroke-opacity:1"
               d="m -51.08217,-149.64905 27.96761,-11.18509" /><g
               transform="matrix(0.92847,-0.3713,0.3713,0.92847,-23.11458,-160.83414)"
               id="g616"><g
                 id="g618"><path
                   id="path620"
                   style="fill:#000000;fill-opacity:1;fill-rule:nonzero;stroke:none"
                   d="M 3.58653,0 C 2.52383,0.19925 0.797,0.797 -0.3985,1.49438 V -1.49438 C 0.797,-0.797 2.52383,-0.19925 3.58653,0" /></g></g><path
               id="path622"
               style="fill:none;stroke:#000000;stroke-width:0.3985;stroke-linecap:butt;stroke-linejoin:miter;stroke-miterlimit:10;stroke-dasharray:none;stroke-opacity:1"
               d="M 51.20985,-149.59796 23.11456,-160.83414" /><g
               transform="matrix(-0.92847,-0.3713,0.3713,-0.92847,23.11458,-160.83414)"
               id="g624"><g
                 id="g626"><path
                   id="path628"
                   style="fill:#000000;fill-opacity:1;fill-rule:nonzero;stroke:none"
                   d="M 3.58653,0 C 2.52383,0.19925 0.797,0.797 -0.3985,1.49438 V -1.49438 C 0.797,-0.797 2.52383,-0.19925 3.58653,0" /></g></g></g></g></g></g></g></svg>
