<svg xmlns="http://www.w3.org/2000/svg" xmlns:svg="http://www.w3.org/2000/svg" id="svg2" width="353.253" height="199.627" version="1.1" viewBox="0 0 176.627 99.813" xml:space="preserve"><metadata id="metadata8"/><g id="g10" transform="matrix(1.3333333,0,0,-1.3333333,0,99.813333)"><g id="g12" transform="translate(72,2.859)"><g id="g14" transform="translate(-5.644,63.497)"><g id="g16"><g id="g18"><g id="g20"><path id="path22" d="M 8.30368,0 C 8.30368,4.58604 4.58604,8.30368 0,8.30368 -4.58604,8.30368 -8.30368,4.58604 -8.30368,0 c 0,-4.58604 3.71764,-8.30368 8.30368,-8.30368 4.58604,0 8.30368,3.71764 8.30368,8.30368 z" style="fill:none;stroke:#000;stroke-width:.3985;stroke-linecap:butt;stroke-linejoin:miter;stroke-miterlimit:10;stroke-dasharray:none;stroke-opacity:1"/><g id="g24"><g id="g26" transform="scale(-1)"><g id="g30" transform="rotate(180,-2.822,31.7485)"><g id="g34" transform="translate(-1.389,-3.556)"><g id="g36"><text id="text40" transform="matrix(1,0,0,-1,-5.644,63.497)" style="font-variant:normal;font-weight:400;font-size:9.96259975px;font-family:'Open Sans';-inkscape-font-specification:OpenSans;writing-mode:lr-tb;fill:#000;fill-opacity:1;fill-rule:nonzero;stroke:none"><tspan id="tspan38" x="0" y="0">I</tspan></text></g></g></g></g></g></g><g id="g44"><path id="path46" d="m -18.56816,-28.3468 c 0,5.40065 -4.37799,9.77864 -9.77864,9.77864 -5.40065,0 -9.77864,-4.37799 -9.77864,-9.77864 0,-5.40065 4.37799,-9.77864 9.77864,-9.77864 5.40065,0 9.77864,4.37799 9.77864,9.77864 z" style="fill:none;stroke:#000;stroke-width:.3985;stroke-linecap:butt;stroke-linejoin:miter;stroke-miterlimit:10;stroke-dasharray:none;stroke-opacity:1"/><g id="g48"><g id="g50" transform="scale(-1)"><g id="g54" transform="rotate(180,-2.822,31.7485)"><g id="g58" transform="translate(-31.978,-31.903)"><g id="g60"><text id="text64" transform="matrix(1,0,0,-1,-5.644,63.497)" style="font-variant:normal;font-weight:400;font-size:9.96259975px;font-family:'Open Sans';-inkscape-font-specification:OpenSans;writing-mode:lr-tb;fill:#000;fill-opacity:1;fill-rule:nonzero;stroke:none"><tspan id="tspan62" x="0" y="0">D</tspan></text></g></g></g></g></g></g><g id="g68"><path id="path70" d="m 37.51543,-28.3468 c 0,5.06375 -4.10488,9.16861 -9.16863,9.16861 -5.06375,0 -9.16861,-4.10486 -9.16861,-9.16861 0,-5.06375 4.10486,-9.16863 9.16861,-9.16863 5.06375,0 9.16863,4.10488 9.16863,9.16863 z" style="fill:none;stroke:#000;stroke-width:.3985;stroke-linecap:butt;stroke-linejoin:miter;stroke-miterlimit:10;stroke-dasharray:none;stroke-opacity:1"/><g id="g72"><g id="g74" transform="scale(-1)"><g id="g78" transform="rotate(180,-2.822,31.7485)"><g id="g82" transform="translate(25.576,-31.903)"><g id="g84"><text id="text88" transform="matrix(1,0,0,-1,-5.644,63.497)" style="font-variant:normal;font-weight:400;font-size:9.96259975px;font-family:'Open Sans';-inkscape-font-specification:OpenSans;writing-mode:lr-tb;fill:#000;fill-opacity:1;fill-rule:nonzero;stroke:none"><tspan id="tspan86" x="0" y="0">E</tspan></text></g></g></g></g></g></g><g id="g92"><path id="path94" d="m -47.22923,-56.69362 c 0,5.2271 -4.23729,9.46439 -9.46439,9.46439 -5.22708,0 -9.46438,-4.23729 -9.46438,-9.46439 0,-5.22708 4.2373,-9.46438 9.46438,-9.46438 5.2271,0 9.46439,4.2373 9.46439,9.46438 z" style="fill:none;stroke:#000;stroke-width:.3985;stroke-linecap:butt;stroke-linejoin:miter;stroke-miterlimit:10;stroke-dasharray:none;stroke-opacity:1"/><g id="g96"><g id="g98" transform="scale(-1)"><g id="g102" transform="rotate(180,-2.822,31.7485)"><g id="g106" transform="translate(-59.921,-60.25)"><g id="g108"><text id="text112" transform="matrix(1,0,0,-1,-5.644,63.497)" style="font-variant:normal;font-weight:400;font-size:9.96259975px;font-family:'Open Sans';-inkscape-font-specification:OpenSans;writing-mode:lr-tb;fill:#000;fill-opacity:1;fill-rule:nonzero;stroke:none"><tspan id="tspan110" x="0" y="0">B</tspan></text></g></g></g></g></g></g><g id="g116"><path id="path118" d="m 9.36368,-56.69362 c 0,5.17149 -4.1922,9.36369 -9.36368,9.36369 -5.17148,0 -9.36368,-4.1922 -9.36368,-9.36369 0,-5.17148 4.1922,-9.36368 9.36368,-9.36368 5.17148,0 9.36368,4.1922 9.36368,9.36368 z" style="fill:none;stroke:#000;stroke-width:.3985;stroke-linecap:butt;stroke-linejoin:miter;stroke-miterlimit:10;stroke-dasharray:none;stroke-opacity:1"/><g id="g120"><g id="g122" transform="scale(-1)"><g id="g126" transform="rotate(180,-2.822,31.7485)"><g id="g130" transform="translate(-3.057,-60.25)"><g id="g132"><text id="text136" transform="matrix(1,0,0,-1,-5.644,63.497)" style="font-variant:normal;font-weight:400;font-size:9.96259975px;font-family:'Open Sans';-inkscape-font-specification:OpenSans;writing-mode:lr-tb;fill:#000;fill-opacity:1;fill-rule:nonzero;stroke:none"><tspan id="tspan134" x="0" y="0">K</tspan></text></g></g></g></g></g></g><g id="g140"><path id="path142" d="m 65.91039,-56.69362 c 0,5.09035 -4.12644,9.21678 -9.21677,9.21678 -5.09035,0 -9.21678,-4.12643 -9.21678,-9.21678 0,-5.09033 4.12643,-9.21677 9.21678,-9.21677 5.09033,0 9.21677,4.12644 9.21677,9.21677 z" style="fill:none;stroke:#000;stroke-width:.3985;stroke-linecap:butt;stroke-linejoin:miter;stroke-miterlimit:10;stroke-dasharray:none;stroke-opacity:1"/><g id="g144"><g id="g146" transform="scale(-1)"><g id="g150" transform="rotate(180,-2.822,31.7485)"><g id="g154" transform="translate(53.85,-60.25)"><g id="g156"><text id="text160" transform="matrix(1,0,0,-1,-5.644,63.497)" style="font-variant:normal;font-weight:400;font-size:9.96259975px;font-family:'Open Sans';-inkscape-font-specification:OpenSans;writing-mode:lr-tb;fill:#000;fill-opacity:1;fill-rule:nonzero;stroke:none"><tspan id="tspan158" x="0" y="0">Z</tspan></text></g></g></g></g></g></g><path id="path164" d="M -6.01248,-6.01248 -21.29137,-21.29137" style="fill:none;stroke:#000;stroke-width:.3985;stroke-linecap:butt;stroke-linejoin:miter;stroke-miterlimit:10;stroke-dasharray:none;stroke-opacity:1"/><path id="path166" d="M 6.01248,-6.01248 21.72272,-21.72272" style="fill:none;stroke:#000;stroke-width:.3985;stroke-linecap:butt;stroke-linejoin:miter;stroke-miterlimit:10;stroke-dasharray:none;stroke-opacity:1"/><path id="path168" d="M -35.40224,-35.40224 -49.86038,-49.86038" style="fill:none;stroke:#000;stroke-width:.3985;stroke-linecap:butt;stroke-linejoin:miter;stroke-miterlimit:10;stroke-dasharray:none;stroke-opacity:1"/><path id="path170" d="M 21.72272,-34.97089 6.76201,-49.9316" style="fill:none;stroke:#000;stroke-width:.3985;stroke-linecap:butt;stroke-linejoin:miter;stroke-miterlimit:10;stroke-dasharray:none;stroke-opacity:1"/><path id="path172" d="M 34.97089,-34.97089 50.03548,-50.03548" style="fill:none;stroke:#000;stroke-width:.3985;stroke-linecap:butt;stroke-linejoin:miter;stroke-miterlimit:10;stroke-dasharray:none;stroke-opacity:1"/></g></g></g></g></g></svg>