<?xml version="1.0" encoding="UTF-8" standalone="no"?>
<svg
   xmlns:dc="http://purl.org/dc/elements/1.1/"
   xmlns:cc="http://creativecommons.org/ns#"
   xmlns:rdf="http://www.w3.org/1999/02/22-rdf-syntax-ns#"
   xmlns:svg="http://www.w3.org/2000/svg"
   xmlns="http://www.w3.org/2000/svg"
   viewBox="0 0 176.62666 99.813332"
   height="199.626664"
   width="353.25332"
   xml:space="preserve"
   id="svg2"
   version="1.1"><metadata
     id="metadata8"><rdf:RDF><cc:Work
         rdf:about=""><dc:format>image/svg+xml</dc:format><dc:type
           rdf:resource="http://purl.org/dc/dcmitype/StillImage" /></cc:Work></rdf:RDF></metadata><defs
     id="defs6" /><g
     transform="matrix(1.3333333,0,0,-1.3333333,0,99.813333)"
     id="g10"><g
       transform="translate(72,2.859)"
       id="g12"><g
         transform="translate(-5.644,63.497)"
         id="g14"><g
           id="g16"><g
             id="g18"><g
               id="g20"><path
                 id="path22"
                 style="fill:none;stroke:#000000;stroke-width:0.3985;stroke-linecap:butt;stroke-linejoin:miter;stroke-miterlimit:10;stroke-dasharray:none;stroke-opacity:1"
                 d="M 8.30368,0 C 8.30368,4.58604 4.58604,8.30368 0,8.30368 -4.58604,8.30368 -8.30368,4.58604 -8.30368,0 c 0,-4.58604 3.71764,-8.30368 8.30368,-8.30368 4.58604,0 8.30368,3.71764 8.30368,8.30368 z" /><g
                 id="g24"><g
                   transform="scale(-1)"
                   id="g26"><g
                     id="g28" /><g
                     transform="rotate(180,-2.822,31.7485)"
                     id="g30"><g
                       id="g32" /><g
                       transform="translate(-1.389,-3.556)"
                       id="g34"><g
                         id="g36"><text
                           id="text40"
                           style="font-variant:normal;font-weight:normal;font-size:9.96259975px;font-family:'Open Sans';-inkscape-font-specification:OpenSans;writing-mode:lr-tb;fill:#000000;fill-opacity:1;fill-rule:nonzero;stroke:none"
                           transform="matrix(1,0,0,-1,-5.644,63.497)"><tspan
                             id="tspan38"
                             y="0"
                             x="0">I</tspan></text>
</g></g><g
                       transform="translate(-5.644,63.497)"
                       id="g42" /></g></g></g></g><g
               id="g44"><path
                 id="path46"
                 style="fill:none;stroke:#000000;stroke-width:0.3985;stroke-linecap:butt;stroke-linejoin:miter;stroke-miterlimit:10;stroke-dasharray:none;stroke-opacity:1"
                 d="m -18.56816,-28.3468 c 0,5.40065 -4.37799,9.77864 -9.77864,9.77864 -5.40065,0 -9.77864,-4.37799 -9.77864,-9.77864 0,-5.40065 4.37799,-9.77864 9.77864,-9.77864 5.40065,0 9.77864,4.37799 9.77864,9.77864 z" /><g
                 id="g48"><g
                   transform="scale(-1)"
                   id="g50"><g
                     id="g52" /><g
                     transform="rotate(180,-2.822,31.7485)"
                     id="g54"><g
                       id="g56" /><g
                       transform="translate(-31.978,-31.903)"
                       id="g58"><g
                         id="g60"><text
                           id="text64"
                           style="font-variant:normal;font-weight:normal;font-size:9.96259975px;font-family:'Open Sans';-inkscape-font-specification:OpenSans;writing-mode:lr-tb;fill:#000000;fill-opacity:1;fill-rule:nonzero;stroke:none"
                           transform="matrix(1,0,0,-1,-5.644,63.497)"><tspan
                             id="tspan62"
                             y="0"
                             x="0">D</tspan></text>
</g></g><g
                       transform="translate(-5.644,63.497)"
                       id="g66" /></g></g></g></g><g
               id="g68"><path
                 id="path70"
                 style="fill:none;stroke:#000000;stroke-width:0.3985;stroke-linecap:butt;stroke-linejoin:miter;stroke-miterlimit:10;stroke-dasharray:none;stroke-opacity:1"
                 d="m 37.51543,-28.3468 c 0,5.06375 -4.10488,9.16861 -9.16863,9.16861 -5.06375,0 -9.16861,-4.10486 -9.16861,-9.16861 0,-5.06375 4.10486,-9.16863 9.16861,-9.16863 5.06375,0 9.16863,4.10488 9.16863,9.16863 z" /><g
                 id="g72"><g
                   transform="scale(-1)"
                   id="g74"><g
                     id="g76" /><g
                     transform="rotate(180,-2.822,31.7485)"
                     id="g78"><g
                       id="g80" /><g
                       transform="translate(25.576,-31.903)"
                       id="g82"><g
                         id="g84"><text
                           id="text88"
                           style="font-variant:normal;font-weight:normal;font-size:9.96259975px;font-family:'Open Sans';-inkscape-font-specification:OpenSans;writing-mode:lr-tb;fill:#000000;fill-opacity:1;fill-rule:nonzero;stroke:none"
                           transform="matrix(1,0,0,-1,-5.644,63.497)"><tspan
                             id="tspan86"
                             y="0"
                             x="0">E</tspan></text>
</g></g><g
                       transform="translate(-5.644,63.497)"
                       id="g90" /></g></g></g></g><g
               id="g92"><path
                 id="path94"
                 style="fill:none;stroke:#000000;stroke-width:0.3985;stroke-linecap:butt;stroke-linejoin:miter;stroke-miterlimit:10;stroke-dasharray:none;stroke-opacity:1"
                 d="m -47.22923,-56.69362 c 0,5.2271 -4.23729,9.46439 -9.46439,9.46439 -5.22708,0 -9.46438,-4.23729 -9.46438,-9.46439 0,-5.22708 4.2373,-9.46438 9.46438,-9.46438 5.2271,0 9.46439,4.2373 9.46439,9.46438 z" /><g
                 id="g96"><g
                   transform="scale(-1)"
                   id="g98"><g
                     id="g100" /><g
                     transform="rotate(180,-2.822,31.7485)"
                     id="g102"><g
                       id="g104" /><g
                       transform="translate(-59.921,-60.25)"
                       id="g106"><g
                         id="g108"><text
                           id="text112"
                           style="font-variant:normal;font-weight:normal;font-size:9.96259975px;font-family:'Open Sans';-inkscape-font-specification:OpenSans;writing-mode:lr-tb;fill:#000000;fill-opacity:1;fill-rule:nonzero;stroke:none"
                           transform="matrix(1,0,0,-1,-5.644,63.497)"><tspan
                             id="tspan110"
                             y="0"
                             x="0">B</tspan></text>
</g></g><g
                       transform="translate(-5.644,63.497)"
                       id="g114" /></g></g></g></g><g
               id="g116"><path
                 id="path118"
                 style="fill:none;stroke:#000000;stroke-width:0.3985;stroke-linecap:butt;stroke-linejoin:miter;stroke-miterlimit:10;stroke-dasharray:none;stroke-opacity:1"
                 d="m 9.36368,-56.69362 c 0,5.17149 -4.1922,9.36369 -9.36368,9.36369 -5.17148,0 -9.36368,-4.1922 -9.36368,-9.36369 0,-5.17148 4.1922,-9.36368 9.36368,-9.36368 5.17148,0 9.36368,4.1922 9.36368,9.36368 z" /><g
                 id="g120"><g
                   transform="scale(-1)"
                   id="g122"><g
                     id="g124" /><g
                     transform="rotate(180,-2.822,31.7485)"
                     id="g126"><g
                       id="g128" /><g
                       transform="translate(-3.057,-60.25)"
                       id="g130"><g
                         id="g132"><text
                           id="text136"
                           style="font-variant:normal;font-weight:normal;font-size:9.96259975px;font-family:'Open Sans';-inkscape-font-specification:OpenSans;writing-mode:lr-tb;fill:#000000;fill-opacity:1;fill-rule:nonzero;stroke:none"
                           transform="matrix(1,0,0,-1,-5.644,63.497)"><tspan
                             id="tspan134"
                             y="0"
                             x="0">K</tspan></text>
</g></g><g
                       transform="translate(-5.644,63.497)"
                       id="g138" /></g></g></g></g><g
               id="g140"><path
                 id="path142"
                 style="fill:none;stroke:#000000;stroke-width:0.3985;stroke-linecap:butt;stroke-linejoin:miter;stroke-miterlimit:10;stroke-dasharray:none;stroke-opacity:1"
                 d="m 65.91039,-56.69362 c 0,5.09035 -4.12644,9.21678 -9.21677,9.21678 -5.09035,0 -9.21678,-4.12643 -9.21678,-9.21678 0,-5.09033 4.12643,-9.21677 9.21678,-9.21677 5.09033,0 9.21677,4.12644 9.21677,9.21677 z" /><g
                 id="g144"><g
                   transform="scale(-1)"
                   id="g146"><g
                     id="g148" /><g
                     transform="rotate(180,-2.822,31.7485)"
                     id="g150"><g
                       id="g152" /><g
                       transform="translate(53.85,-60.25)"
                       id="g154"><g
                         id="g156"><text
                           id="text160"
                           style="font-variant:normal;font-weight:normal;font-size:9.96259975px;font-family:'Open Sans';-inkscape-font-specification:OpenSans;writing-mode:lr-tb;fill:#000000;fill-opacity:1;fill-rule:nonzero;stroke:none"
                           transform="matrix(1,0,0,-1,-5.644,63.497)"><tspan
                             id="tspan158"
                             y="0"
                             x="0">Z</tspan></text>
</g></g><g
                       transform="translate(-5.644,63.497)"
                       id="g162" /></g></g></g></g><path
               id="path164"
               style="fill:none;stroke:#000000;stroke-width:0.3985;stroke-linecap:butt;stroke-linejoin:miter;stroke-miterlimit:10;stroke-dasharray:none;stroke-opacity:1"
               d="M -6.01248,-6.01248 -21.29137,-21.29137" /><path
               id="path166"
               style="fill:none;stroke:#000000;stroke-width:0.3985;stroke-linecap:butt;stroke-linejoin:miter;stroke-miterlimit:10;stroke-dasharray:none;stroke-opacity:1"
               d="M 6.01248,-6.01248 21.72272,-21.72272" /><path
               id="path168"
               style="fill:none;stroke:#000000;stroke-width:0.3985;stroke-linecap:butt;stroke-linejoin:miter;stroke-miterlimit:10;stroke-dasharray:none;stroke-opacity:1"
               d="M -35.40224,-35.40224 -49.86038,-49.86038" /><path
               id="path170"
               style="fill:none;stroke:#000000;stroke-width:0.3985;stroke-linecap:butt;stroke-linejoin:miter;stroke-miterlimit:10;stroke-dasharray:none;stroke-opacity:1"
               d="M 21.72272,-34.97089 6.76201,-49.9316" /><path
               id="path172"
               style="fill:none;stroke:#000000;stroke-width:0.3985;stroke-linecap:butt;stroke-linejoin:miter;stroke-miterlimit:10;stroke-dasharray:none;stroke-opacity:1"
               d="M 34.97089,-34.97089 50.03548,-50.03548" /></g></g></g></g></g></svg>
