<svg xmlns="http://www.w3.org/2000/svg" xmlns:svg="http://www.w3.org/2000/svg" id="svg2" width="202.827" height="164.933" version="1.1" viewBox="0 0 101.413 82.467" xml:space="preserve"><metadata id="metadata8"/><g id="g10" transform="matrix(1.3333333,0,0,-1.3333333,0,82.466667)"><g id="g12" transform="translate(72,-10.149)"><g id="g14" transform="translate(-33.99,62.367)"><g id="g16"><g id="g18"><g id="g20"><path id="path22" d="M 9.43373,0 C 9.43373,5.21016 5.21016,9.43373 0,9.43373 -5.21016,9.43373 -9.43373,5.21016 -9.43373,0 c 0,-5.21016 4.22357,-9.43373 9.43373,-9.43373 5.21016,0 9.43373,4.22357 9.43373,9.43373 z" style="fill:none;stroke:#000;stroke-width:.3985;stroke-linecap:butt;stroke-linejoin:miter;stroke-miterlimit:10;stroke-dasharray:none;stroke-opacity:1"/><g id="g24"><g id="g26" transform="scale(-1)"><g id="g30" transform="rotate(180,-16.995,31.1835)"><g id="g34" transform="translate(-3.152,-3.571)"><g id="g36"><text id="text40" transform="matrix(1,0,0,-1,-33.99,62.367)" style="font-variant:normal;font-weight:400;font-size:9.96259975px;font-family:'Open Sans';-inkscape-font-specification:OpenSans;writing-mode:lr-tb;fill:#000;fill-opacity:1;fill-rule:nonzero;stroke:none"><tspan id="tspan38" x="0" y="0">A</tspan></text></g></g></g></g></g></g><g id="g44"><path id="path46" d="m -18.88242,-42.5202 c 0,5.2271 -4.23728,9.46438 -9.46438,9.46438 -5.2271,0 -9.46439,-4.23728 -9.46439,-9.46438 0,-5.2271 4.23729,-9.46439 9.46439,-9.46439 5.2271,0 9.46438,4.23729 9.46438,9.46439 z" style="fill:none;stroke:#000;stroke-width:.3985;stroke-linecap:butt;stroke-linejoin:miter;stroke-miterlimit:10;stroke-dasharray:none;stroke-opacity:1"/><g id="g48"><g id="g50" transform="scale(-1)"><g id="g54" transform="rotate(180,-16.995,31.1835)"><g id="g58" transform="translate(-31.575,-46.076)"><g id="g60"><text id="text64" transform="matrix(1,0,0,-1,-33.99,62.367)" style="font-variant:normal;font-weight:400;font-size:9.96259975px;font-family:'Open Sans';-inkscape-font-specification:OpenSans;writing-mode:lr-tb;fill:#000;fill-opacity:1;fill-rule:nonzero;stroke:none"><tspan id="tspan62" x="0" y="0">B</tspan></text></g></g></g></g></g></g><g id="g68"><path id="path70" d="m 37.84645,-42.5202 c 0,5.24656 -4.25308,9.49966 -9.49965,9.49966 -5.24657,0 -9.49965,-4.2531 -9.49965,-9.49966 0,-5.24657 4.25308,-9.49965 9.49965,-9.49965 5.24657,0 9.49965,4.25308 9.49965,9.49965 z" style="fill:none;stroke:#000;stroke-width:.3985;stroke-linecap:butt;stroke-linejoin:miter;stroke-miterlimit:10;stroke-dasharray:none;stroke-opacity:1"/><g id="g72"><g id="g74" transform="scale(-1)"><g id="g78" transform="rotate(180,-16.995,31.1835)"><g id="g82" transform="translate(25.204,-46.079)"><g id="g84"><text id="text88" transform="matrix(1,0,0,-1,-33.99,62.367)" style="font-variant:normal;font-weight:400;font-size:9.96259975px;font-family:'Open Sans';-inkscape-font-specification:OpenSans;writing-mode:lr-tb;fill:#000;fill-opacity:1;fill-rule:nonzero;stroke:none"><tspan id="tspan86" x="0" y="0">C</tspan></text></g></g></g></g></g></g><path id="path92" d="M -5.34314,-8.0148 -22.98666,-34.4799" style="fill:none;stroke:#000;stroke-width:.3985;stroke-linecap:butt;stroke-linejoin:miter;stroke-miterlimit:10;stroke-dasharray:none;stroke-opacity:1"/><path id="path94" d="M 5.34314,-8.0148 22.9671,-34.45056" style="fill:none;stroke:#000;stroke-width:.3985;stroke-linecap:butt;stroke-linejoin:miter;stroke-miterlimit:10;stroke-dasharray:none;stroke-opacity:1"/></g></g></g></g></g></svg>