<?xml version="1.0" encoding="UTF-8" standalone="no"?>
<svg
   xmlns:dc="http://purl.org/dc/elements/1.1/"
   xmlns:cc="http://creativecommons.org/ns#"
   xmlns:rdf="http://www.w3.org/1999/02/22-rdf-syntax-ns#"
   xmlns:svg="http://www.w3.org/2000/svg"
   xmlns="http://www.w3.org/2000/svg"
   viewBox="0 0 610.37067 232.592"
   height="232.592"
   width="610.37067"
   xml:space="preserve"
   id="svg2"
   version="1.1"><metadata
     id="metadata8"><rdf:RDF><cc:Work
         rdf:about=""><dc:format>image/svg+xml</dc:format><dc:type
           rdf:resource="http://purl.org/dc/dcmitype/StillImage" /></cc:Work></rdf:RDF></metadata><defs
     id="defs6"><clipPath
       id="clipPath66"
       clipPathUnits="userSpaceOnUse"><path
         id="path64"
         d="M 0,174.444 H 457.778 V 0 H 0 Z" /></clipPath><clipPath
       id="clipPath82"
       clipPathUnits="userSpaceOnUse"><path
         id="path80"
         d="M 0,174.444 H 457.778 V 0 H 0 Z" /></clipPath></defs><g
     transform="matrix(1.3333333,0,0,-1.3333333,0,232.592)"
     id="g10"><path
       id="path12"
       style="fill:#ffffff;fill-opacity:1;fill-rule:nonzero;stroke:#231f20;stroke-width:1;stroke-linecap:butt;stroke-linejoin:miter;stroke-miterlimit:10;stroke-dasharray:none;stroke-opacity:1"
       d="m 63.889,112.778 h -55 v 55 h 55 z" /><path
       id="path14"
       style="fill:#ffffff;fill-opacity:1;fill-rule:nonzero;stroke:#231f20;stroke-width:1;stroke-linecap:butt;stroke-linejoin:miter;stroke-miterlimit:10;stroke-dasharray:none;stroke-opacity:1"
       d="m 118.889,112.778 h -55 v 55 h 55 z" /><path
       id="path16"
       style="fill:#ffffff;fill-opacity:1;fill-rule:nonzero;stroke:#231f20;stroke-width:1;stroke-linecap:butt;stroke-linejoin:miter;stroke-miterlimit:10;stroke-dasharray:none;stroke-opacity:1"
       d="m 63.889,57.778 h -55 v 55 h 55 z" /><path
       id="path18"
       style="fill:#ffffff;fill-opacity:1;fill-rule:nonzero;stroke:#231f20;stroke-width:1;stroke-linecap:butt;stroke-linejoin:miter;stroke-miterlimit:10;stroke-dasharray:none;stroke-opacity:1"
       d="m 118.889,57.778 h -55 v 55 h 55 z" /><path
       id="path20"
       style="fill:#ffffff;fill-opacity:1;fill-rule:nonzero;stroke:#231f20;stroke-width:1;stroke-linecap:butt;stroke-linejoin:miter;stroke-miterlimit:10;stroke-dasharray:none;stroke-opacity:1"
       d="m 233.889,112.778 h -55 v 55 h 55 z" /><path
       id="path22"
       style="fill:#ffffff;fill-opacity:1;fill-rule:nonzero;stroke:#231f20;stroke-width:1;stroke-linecap:butt;stroke-linejoin:miter;stroke-miterlimit:10;stroke-dasharray:none;stroke-opacity:1"
       d="m 288.889,112.778 h -55 v 55 h 55 z" /><path
       id="path24"
       style="fill:#ffffff;fill-opacity:1;fill-rule:nonzero;stroke:#231f20;stroke-width:1;stroke-linecap:butt;stroke-linejoin:miter;stroke-miterlimit:10;stroke-dasharray:none;stroke-opacity:1"
       d="m 233.889,57.778 h -55 v 55 h 55 z" /><path
       id="path26"
       style="fill:#ffffff;fill-opacity:1;fill-rule:nonzero;stroke:#231f20;stroke-width:1;stroke-linecap:butt;stroke-linejoin:miter;stroke-miterlimit:10;stroke-dasharray:none;stroke-opacity:1"
       d="m 288.889,57.778 h -55 v 55 h 55 z" /><path
       id="path28"
       style="fill:#ffffff;fill-opacity:1;fill-rule:nonzero;stroke:#231f20;stroke-width:1;stroke-linecap:butt;stroke-linejoin:miter;stroke-miterlimit:10;stroke-dasharray:none;stroke-opacity:1"
       d="m 397.222,112.778 h -55 v 55 h 55 z" /><path
       id="path30"
       style="fill:#ffffff;fill-opacity:1;fill-rule:nonzero;stroke:#231f20;stroke-width:1;stroke-linecap:butt;stroke-linejoin:miter;stroke-miterlimit:10;stroke-dasharray:none;stroke-opacity:1"
       d="m 452.222,112.778 h -55 v 55 h 55 z" /><path
       id="path32"
       style="fill:#ffffff;fill-opacity:1;fill-rule:nonzero;stroke:#231f20;stroke-width:1;stroke-linecap:butt;stroke-linejoin:miter;stroke-miterlimit:10;stroke-dasharray:none;stroke-opacity:1"
       d="m 397.222,57.778 h -55 v 55 h 55 z" /><path
       id="path34"
       style="fill:#ffffff;fill-opacity:1;fill-rule:nonzero;stroke:#231f20;stroke-width:1;stroke-linecap:butt;stroke-linejoin:miter;stroke-miterlimit:10;stroke-dasharray:none;stroke-opacity:1"
       d="m 452.222,57.778 h -55 v 55 h 55 z" /><text
       id="text42"
       style="font-variant:normal;font-weight:bold;font-stretch:normal;font-size:48px;font-family:'Myriad Pro Black';-inkscape-font-specification:MyriadPro-Black;writing-mode:lr-tb;fill:#231f20;fill-opacity:1;fill-rule:nonzero;stroke:none"
       transform="matrix(1,0,0,-1,24.4448,124.4453)"><tspan
         id="tspan36"
         y="0"
         x="0">A</tspan><tspan
         id="tspan38"
         y="56.688"
         x="0 48.335999">BC</tspan><tspan
         id="tspan40"
         y="0"
         x="48.335999">D</tspan></text>
<text
       id="text54"
       style="font-variant:normal;font-weight:bold;font-stretch:normal;font-size:48px;font-family:'Myriad Pro Black';-inkscape-font-specification:MyriadPro-Black;writing-mode:lr-tb;fill:#231f20;fill-opacity:1;fill-rule:nonzero;stroke:none"
       transform="matrix(0,1,1,0,220.2778,124.4448)"><tspan
         id="tspan44"
         y="0"
         x="0 -56.688">AB</tspan><tspan
         id="tspan46"
         y="56.688"
         x="-56.688 0">CD</tspan><tspan
         id="tspan48"
         y="164.448"
         x="-53.327999">A</tspan><tspan
         id="tspan50"
         y="221.136"
         x="-53.327999 0">BC</tspan><tspan
         id="tspan52"
         y="164.448"
         x="0">D</tspan></text>
<text
       id="text58"
       style="font-variant:normal;font-weight:normal;font-stretch:normal;font-size:21px;font-family:'Myriad Pro';-inkscape-font-specification:MyriadPro-Regular;writing-mode:lr-tb;fill:#231f20;fill-opacity:1;fill-rule:nonzero;stroke:none"
       transform="matrix(1,0,0,-1,47.7744,31.1113)"><tspan
         id="tspan56"
         y="0"
         x="0 6.6570001 18.186001 25.136999 35.174999 42.125999 47.040001 58.569 70.223999 74.676003 81.335098 91.856102 101.2641 112.8351 119.7021 128.0181 132.9321 142.8231">rotation récursive</tspan></text>
<g
       id="g60"><g
         clip-path="url(#clipPath66)"
         id="g62"><text
           id="text70"
           style="font-variant:normal;font-weight:normal;font-stretch:normal;font-size:21px;font-family:'Myriad Pro';-inkscape-font-specification:MyriadPro-Regular;writing-mode:lr-tb;fill:#231f20;fill-opacity:1;fill-rule:nonzero;stroke:none"
           transform="matrix(1,0,0,-1,62.3374,5.9111)"><tspan
             id="tspan68"
             y="0"
             x="0 11.844 22.365 30.681 35.132999 46.956001 58.527 68.649002 80.492996 87.254997 97.376999 108.948 115.899">des quadrants</tspan></text>
</g></g><text
       id="text74"
       style="font-variant:normal;font-weight:normal;font-stretch:normal;font-size:21px;font-family:'Myriad Pro';-inkscape-font-specification:MyriadPro-Regular;writing-mode:lr-tb;fill:#231f20;fill-opacity:1;fill-rule:nonzero;stroke:none"
       transform="matrix(1,0,0,-1,244.7417,31.1113)"><tspan
         id="tspan72"
         y="0"
         x="0 11.949 22.469999 29.421 46.935001 58.506001 65.457001 75.495003 82.445999 87.360001 98.889 110.544 114.996 124.404 129.31799 135.97501 145.383 156.95399 161.91 172.032 176.946 183.603">permutation circulaire</tspan></text>
<g
       id="g76"><g
         clip-path="url(#clipPath82)"
         id="g78"><text
           id="text86"
           style="font-variant:normal;font-weight:normal;font-stretch:normal;font-size:21px;font-family:'Myriad Pro';-inkscape-font-specification:MyriadPro-Regular;writing-mode:lr-tb;fill:#231f20;fill-opacity:1;fill-rule:nonzero;stroke:none"
           transform="matrix(1,0,0,-1,280.1157,5.9111)"><tspan
             id="tspan84"
             y="0"
             x="0 11.844 22.365 30.681 35.132999 46.956001 58.527 68.649002 80.492996 87.254997 97.376999 108.948 115.899">des quadrants</tspan></text>
</g></g></g></svg>