<svg xmlns="http://www.w3.org/2000/svg" xmlns:svg="http://www.w3.org/2000/svg" id="svg2" width="610.371" height="232.592" version="1.1" viewBox="0 0 610.371 232.592" xml:space="preserve"><metadata id="metadata8"/><defs id="defs6"><clipPath id="clipPath66" clipPathUnits="userSpaceOnUse"><path id="path64" d="M 0,174.444 H 457.778 V 0 H 0 Z"/></clipPath><clipPath id="clipPath82" clipPathUnits="userSpaceOnUse"><path id="path80" d="M 0,174.444 H 457.778 V 0 H 0 Z"/></clipPath></defs><g id="g10" transform="matrix(1.3333333,0,0,-1.3333333,0,232.592)"><path id="path12" style="fill:#fff;fill-opacity:1;fill-rule:nonzero;stroke:#231f20;stroke-width:1;stroke-linecap:butt;stroke-linejoin:miter;stroke-miterlimit:10;stroke-dasharray:none;stroke-opacity:1" d="m 63.889,112.778 h -55 v 55 h 55 z"/><path id="path14" style="fill:#fff;fill-opacity:1;fill-rule:nonzero;stroke:#231f20;stroke-width:1;stroke-linecap:butt;stroke-linejoin:miter;stroke-miterlimit:10;stroke-dasharray:none;stroke-opacity:1" d="m 118.889,112.778 h -55 v 55 h 55 z"/><path id="path16" style="fill:#fff;fill-opacity:1;fill-rule:nonzero;stroke:#231f20;stroke-width:1;stroke-linecap:butt;stroke-linejoin:miter;stroke-miterlimit:10;stroke-dasharray:none;stroke-opacity:1" d="m 63.889,57.778 h -55 v 55 h 55 z"/><path id="path18" style="fill:#fff;fill-opacity:1;fill-rule:nonzero;stroke:#231f20;stroke-width:1;stroke-linecap:butt;stroke-linejoin:miter;stroke-miterlimit:10;stroke-dasharray:none;stroke-opacity:1" d="m 118.889,57.778 h -55 v 55 h 55 z"/><path id="path20" style="fill:#fff;fill-opacity:1;fill-rule:nonzero;stroke:#231f20;stroke-width:1;stroke-linecap:butt;stroke-linejoin:miter;stroke-miterlimit:10;stroke-dasharray:none;stroke-opacity:1" d="m 233.889,112.778 h -55 v 55 h 55 z"/><path id="path22" style="fill:#fff;fill-opacity:1;fill-rule:nonzero;stroke:#231f20;stroke-width:1;stroke-linecap:butt;stroke-linejoin:miter;stroke-miterlimit:10;stroke-dasharray:none;stroke-opacity:1" d="m 288.889,112.778 h -55 v 55 h 55 z"/><path id="path24" style="fill:#fff;fill-opacity:1;fill-rule:nonzero;stroke:#231f20;stroke-width:1;stroke-linecap:butt;stroke-linejoin:miter;stroke-miterlimit:10;stroke-dasharray:none;stroke-opacity:1" d="m 233.889,57.778 h -55 v 55 h 55 z"/><path id="path26" style="fill:#fff;fill-opacity:1;fill-rule:nonzero;stroke:#231f20;stroke-width:1;stroke-linecap:butt;stroke-linejoin:miter;stroke-miterlimit:10;stroke-dasharray:none;stroke-opacity:1" d="m 288.889,57.778 h -55 v 55 h 55 z"/><path id="path28" style="fill:#fff;fill-opacity:1;fill-rule:nonzero;stroke:#231f20;stroke-width:1;stroke-linecap:butt;stroke-linejoin:miter;stroke-miterlimit:10;stroke-dasharray:none;stroke-opacity:1" d="m 397.222,112.778 h -55 v 55 h 55 z"/><path id="path30" style="fill:#fff;fill-opacity:1;fill-rule:nonzero;stroke:#231f20;stroke-width:1;stroke-linecap:butt;stroke-linejoin:miter;stroke-miterlimit:10;stroke-dasharray:none;stroke-opacity:1" d="m 452.222,112.778 h -55 v 55 h 55 z"/><path id="path32" style="fill:#fff;fill-opacity:1;fill-rule:nonzero;stroke:#231f20;stroke-width:1;stroke-linecap:butt;stroke-linejoin:miter;stroke-miterlimit:10;stroke-dasharray:none;stroke-opacity:1" d="m 397.222,57.778 h -55 v 55 h 55 z"/><path id="path34" style="fill:#fff;fill-opacity:1;fill-rule:nonzero;stroke:#231f20;stroke-width:1;stroke-linecap:butt;stroke-linejoin:miter;stroke-miterlimit:10;stroke-dasharray:none;stroke-opacity:1" d="m 452.222,57.778 h -55 v 55 h 55 z"/><text id="text42" style="font-variant:normal;font-weight:700;font-stretch:normal;font-size:48px;font-family:'Myriad Pro Black';-inkscape-font-specification:MyriadPro-Black;writing-mode:lr-tb;fill:#231f20;fill-opacity:1;fill-rule:nonzero;stroke:none" transform="matrix(1,0,0,-1,24.4448,124.4453)"><tspan id="tspan36" x="0" y="0">A</tspan><tspan id="tspan38" x="0 48.336" y="56.688">BC</tspan><tspan id="tspan40" x="48.336" y="0">D</tspan></text><text id="text54" style="font-variant:normal;font-weight:700;font-stretch:normal;font-size:48px;font-family:'Myriad Pro Black';-inkscape-font-specification:MyriadPro-Black;writing-mode:lr-tb;fill:#231f20;fill-opacity:1;fill-rule:nonzero;stroke:none" transform="matrix(0,1,1,0,220.2778,124.4448)"><tspan id="tspan44" x="0 -56.688" y="0">AB</tspan><tspan id="tspan46" x="-56.688 0" y="56.688">CD</tspan><tspan id="tspan48" x="-53.328" y="164.448">A</tspan><tspan id="tspan50" x="-53.328 0" y="221.136">BC</tspan><tspan id="tspan52" x="0" y="164.448">D</tspan></text><text id="text58" style="font-variant:normal;font-weight:400;font-stretch:normal;font-size:21px;font-family:'Myriad Pro';-inkscape-font-specification:MyriadPro-Regular;writing-mode:lr-tb;fill:#231f20;fill-opacity:1;fill-rule:nonzero;stroke:none" transform="matrix(1,0,0,-1,47.7744,31.1113)"><tspan id="tspan56" x="0 6.657 18.186 25.137 35.175 42.126 47.04 58.569 70.224 74.676 81.335 91.856 101.264 112.835 119.702 128.018 132.932 142.823" y="0">rotation récursive</tspan></text><g id="g60"><g id="g62" clip-path="url(#clipPath66)"><text id="text70" style="font-variant:normal;font-weight:400;font-stretch:normal;font-size:21px;font-family:'Myriad Pro';-inkscape-font-specification:MyriadPro-Regular;writing-mode:lr-tb;fill:#231f20;fill-opacity:1;fill-rule:nonzero;stroke:none" transform="matrix(1,0,0,-1,62.3374,5.9111)"><tspan id="tspan68" x="0 11.844 22.365 30.681 35.133 46.956 58.527 68.649 80.493 87.255 97.377 108.948 115.899" y="0">des quadrants</tspan></text></g></g><text id="text74" style="font-variant:normal;font-weight:400;font-stretch:normal;font-size:21px;font-family:'Myriad Pro';-inkscape-font-specification:MyriadPro-Regular;writing-mode:lr-tb;fill:#231f20;fill-opacity:1;fill-rule:nonzero;stroke:none" transform="matrix(1,0,0,-1,244.7417,31.1113)"><tspan id="tspan72" x="0 11.949 22.47 29.421 46.935 58.506 65.457 75.495 82.446 87.36 98.889 110.544 114.996 124.404 129.318 135.975 145.383 156.954 161.91 172.032 176.946 183.603" y="0">permutation circulaire</tspan></text><g id="g76"><g id="g78" clip-path="url(#clipPath82)"><text id="text86" style="font-variant:normal;font-weight:400;font-stretch:normal;font-size:21px;font-family:'Myriad Pro';-inkscape-font-specification:MyriadPro-Regular;writing-mode:lr-tb;fill:#231f20;fill-opacity:1;fill-rule:nonzero;stroke:none" transform="matrix(1,0,0,-1,280.1157,5.9111)"><tspan id="tspan84" x="0 11.844 22.365 30.681 35.133 46.956 58.527 68.649 80.493 87.255 97.377 108.948 115.899" y="0">des quadrants</tspan></text></g></g></g></svg>