<svg xmlns="http://www.w3.org/2000/svg" xmlns:svg="http://www.w3.org/2000/svg" id="svg2" width="655.12" height="494.693" version="1.1" viewBox="0 0 327.56 247.347" xml:space="preserve"><metadata id="metadata8"/><g id="g10" transform="matrix(1.3333333,0,0,-1.3333333,0,247.34667)"><g id="g12" transform="translate(72,113.51)"><g id="g14" transform="translate(50.833,64.284)"><g id="g16"><g id="g18"><g id="g20"><g id="g22"><g id="g24" transform="scale(-1)"><g id="g28" transform="rotate(180,25.4165,32.142)"><g id="g32" transform="translate(-38.307,-2.819)"><g id="g34"><text id="text38" style="font-variant:normal;font-weight:400;font-size:9.96259975px;font-family:'Open Sans';-inkscape-font-specification:OpenSans;writing-mode:lr-tb;fill:#000;fill-opacity:1;fill-rule:nonzero;stroke:none" transform="matrix(1,0,0,-1,50.833,64.284)"><tspan id="tspan36" x="0 3.278 8.976 13.997 19.696 24.727 30.426 35.457 41.156 46.187 51.885 56.906 62.605 67.636 73.335" y="0">[4,3,8,2,7,1,5]</tspan></text></g></g></g></g></g></g><g id="g42"><g id="g44"><g id="g46" transform="scale(-1)"><g id="g50" transform="rotate(180,25.4165,32.142)"><g id="g54" transform="translate(-93.084,-31.166)"><g id="g56"><text id="text60" style="font-variant:normal;font-weight:400;font-size:9.96259975px;font-family:'Open Sans';-inkscape-font-specification:OpenSans;writing-mode:lr-tb;fill:#000;fill-opacity:1;fill-rule:nonzero;stroke:none" transform="matrix(1,0,0,-1,50.833,64.284)"><tspan id="tspan58" x="0 3.278 8.976 13.997 19.696 24.727 30.426 35.457 41.156" y="0">[4,3,8,2]</tspan></text></g></g></g></g></g></g><g id="g64"><g id="g66"><g id="g68" transform="scale(-1)"><g id="g72" transform="rotate(180,25.4165,32.142)"><g id="g76" transform="translate(-110.704,-59.513)"><g id="g78"><text id="text82" style="font-variant:normal;font-weight:400;font-size:9.96259975px;font-family:'Open Sans';-inkscape-font-specification:OpenSans;writing-mode:lr-tb;fill:#000;fill-opacity:1;fill-rule:nonzero;stroke:none" transform="matrix(1,0,0,-1,50.833,64.284)"><tspan id="tspan80" x="0 3.278 8.976 13.997 19.696" y="0">[4,3]</tspan></text></g></g></g></g></g></g><g id="g86"><g id="g88"><g id="g90" transform="scale(-1)"><g id="g94" transform="rotate(180,25.4165,32.142)"><g id="g98" transform="translate(-54.01,-59.513)"><g id="g100"><text id="text104" style="font-variant:normal;font-weight:400;font-size:9.96259975px;font-family:'Open Sans';-inkscape-font-specification:OpenSans;writing-mode:lr-tb;fill:#000;fill-opacity:1;fill-rule:nonzero;stroke:none" transform="matrix(1,0,0,-1,50.833,64.284)"><tspan id="tspan102" x="0 3.278 8.976 13.997 19.696" y="0">[8,2]</tspan></text></g></g></g></g></g></g><g id="g108"><g id="g110"><g id="g112" transform="scale(-1)"><g id="g116" transform="rotate(180,25.4165,32.142)"><g id="g120" transform="translate(-119.514,-87.828)"><g id="g122"><text id="text126" style="font-variant:normal;font-weight:400;font-size:9.96259975px;font-family:'Open Sans';-inkscape-font-specification:OpenSans;writing-mode:lr-tb;fill:#000;fill-opacity:1;fill-rule:nonzero;stroke:none" transform="matrix(1,0,0,-1,50.833,64.284)"><tspan id="tspan124" x="0 3.278 8.976" y="0">[4]</tspan></text></g></g></g></g></g></g><g id="g130"><g id="g132"><g id="g134" transform="scale(-1)"><g id="g138" transform="rotate(180,25.4165,32.142)"><g id="g142" transform="translate(-91.167,-87.859)"><g id="g144"><text id="text148" style="font-variant:normal;font-weight:400;font-size:9.96259975px;font-family:'Open Sans';-inkscape-font-specification:OpenSans;writing-mode:lr-tb;fill:#000;fill-opacity:1;fill-rule:nonzero;stroke:none" transform="matrix(1,0,0,-1,50.833,64.284)"><tspan id="tspan146" x="0 3.278 8.976" y="0">[3]</tspan></text></g></g></g></g></g></g><g id="g152"><g id="g154"><g id="g156" transform="scale(-1)"><g id="g160" transform="rotate(180,25.4165,32.142)"><g id="g164" transform="translate(-62.821,-87.859)"><g id="g166"><text id="text170" style="font-variant:normal;font-weight:400;font-size:9.96259975px;font-family:'Open Sans';-inkscape-font-specification:OpenSans;writing-mode:lr-tb;fill:#000;fill-opacity:1;fill-rule:nonzero;stroke:none" transform="matrix(1,0,0,-1,50.833,64.284)"><tspan id="tspan168" x="0 3.278 8.976" y="0">[8]</tspan></text></g></g></g></g></g></g><g id="g174"><g id="g176"><g id="g178" transform="scale(-1)"><g id="g182" transform="rotate(180,25.4165,32.142)"><g id="g186" transform="translate(-34.474,-87.859)"><g id="g188"><text id="text192" style="font-variant:normal;font-weight:400;font-size:9.96259975px;font-family:'Open Sans';-inkscape-font-specification:OpenSans;writing-mode:lr-tb;fill:#000;fill-opacity:1;fill-rule:nonzero;stroke:none" transform="matrix(1,0,0,-1,50.833,64.284)"><tspan id="tspan190" x="0 3.278 8.976" y="0">[2]</tspan></text></g></g></g></g></g></g><g id="g196"><g id="g198"><g id="g200" transform="scale(-1)"><g id="g204" transform="rotate(180,25.4165,32.142)"><g id="g208" transform="translate(-110.704,-116.206)"><g id="g210"><text id="text214" style="font-variant:normal;font-weight:400;font-size:9.96259975px;font-family:'Open Sans';-inkscape-font-specification:OpenSans;writing-mode:lr-tb;fill:#000;fill-opacity:1;fill-rule:nonzero;stroke:none" transform="matrix(1,0,0,-1,50.833,64.284)"><tspan id="tspan212" x="0 3.278 8.976 13.997 19.696" y="0">[3,4]</tspan></text></g></g></g></g></g></g><g id="g218"><g id="g220"><g id="g222" transform="scale(-1)"><g id="g226" transform="rotate(180,25.4165,32.142)"><g id="g230" transform="translate(-54.01,-116.206)"><g id="g232"><text id="text236" style="font-variant:normal;font-weight:400;font-size:9.96259975px;font-family:'Open Sans';-inkscape-font-specification:OpenSans;writing-mode:lr-tb;fill:#000;fill-opacity:1;fill-rule:nonzero;stroke:none" transform="matrix(1,0,0,-1,50.833,64.284)"><tspan id="tspan234" x="0 3.278 8.976 13.997 19.696" y="0">[2,8]</tspan></text></g></g></g></g></g></g><g id="g240"><g id="g242"><g id="g244" transform="scale(-1)"><g id="g248" transform="rotate(180,25.4165,32.142)"><g id="g252" transform="translate(-93.084,-144.553)"><g id="g254"><text id="text258" style="font-variant:normal;font-weight:400;font-size:9.96259975px;font-family:'Open Sans';-inkscape-font-specification:OpenSans;writing-mode:lr-tb;fill:#000;fill-opacity:1;fill-rule:nonzero;stroke:none" transform="matrix(1,0,0,-1,50.833,64.284)"><tspan id="tspan256" x="0 3.278 8.976 13.997 19.696 24.727 30.426 35.457 41.156" y="0">[2,3,4,8]</tspan></text></g></g></g></g></g></g><g id="g262"><g id="g264"><g id="g266" transform="scale(-1)"><g id="g270" transform="rotate(180,25.4165,32.142)"><g id="g274" transform="translate(-38.307,-172.9)"><g id="g276"><text id="text280" style="font-variant:normal;font-weight:400;font-size:9.96259975px;font-family:'Open Sans';-inkscape-font-specification:OpenSans;writing-mode:lr-tb;fill:#000;fill-opacity:1;fill-rule:nonzero;stroke:none" transform="matrix(1,0,0,-1,50.833,64.284)"><tspan id="tspan278" x="0 3.278 8.976 13.997 19.696 24.727 30.426 35.457 41.156 46.187 51.885 56.906 62.605 67.636 73.335" y="0">[1,2,3,4,5,7,8]</tspan></text></g></g></g></g></g></g><g id="g284"><g id="g286"><g id="g288" transform="scale(-1)"><g id="g292" transform="rotate(180,25.4165,32.142)"><g id="g296" transform="translate(54.013,-31.115)"><g id="g298"><text id="text302" style="font-variant:normal;font-weight:400;font-size:9.96259975px;font-family:'Open Sans';-inkscape-font-specification:OpenSans;writing-mode:lr-tb;fill:#000;fill-opacity:1;fill-rule:nonzero;stroke:none" transform="matrix(1,0,0,-1,50.833,64.284)"><tspan id="tspan300" x="0 3.278 8.976 13.997 19.696 24.727 30.426" y="0">[7,1,5]</tspan></text></g></g></g></g></g></g><g id="g306"><g id="g308"><g id="g310" transform="scale(-1)"><g id="g314" transform="rotate(180,25.4165,32.142)"><g id="g318" transform="translate(22.22,-87.808)"><g id="g320"><text id="text324" style="font-variant:normal;font-weight:400;font-size:9.96259975px;font-family:'Open Sans';-inkscape-font-specification:OpenSans;writing-mode:lr-tb;fill:#000;fill-opacity:1;fill-rule:nonzero;stroke:none" transform="matrix(1,0,0,-1,50.833,64.284)"><tspan id="tspan322" x="0 3.278 8.976" y="0">[7]</tspan></text></g></g></g></g></g></g><g id="g328"><g id="g330"><g id="g332" transform="scale(-1)"><g id="g336" transform="rotate(180,25.4165,32.142)"><g id="g340" transform="translate(87.724,-59.462)"><g id="g342"><text id="text346" style="font-variant:normal;font-weight:400;font-size:9.96259975px;font-family:'Open Sans';-inkscape-font-specification:OpenSans;writing-mode:lr-tb;fill:#000;fill-opacity:1;fill-rule:nonzero;stroke:none" transform="matrix(1,0,0,-1,50.833,64.284)"><tspan id="tspan344" x="0 3.278 8.976 13.997 19.696" y="0">[1,5]</tspan></text></g></g></g></g></g></g><g id="g350"><g id="g352"><g id="g354" transform="scale(-1)"><g id="g358" transform="rotate(180,25.4165,32.142)"><g id="g362" transform="translate(78.913,-87.808)"><g id="g364"><text id="text368" style="font-variant:normal;font-weight:400;font-size:9.96259975px;font-family:'Open Sans';-inkscape-font-specification:OpenSans;writing-mode:lr-tb;fill:#000;fill-opacity:1;fill-rule:nonzero;stroke:none" transform="matrix(1,0,0,-1,50.833,64.284)"><tspan id="tspan366" x="0 3.278 8.976" y="0">[1]</tspan></text></g></g></g></g></g></g><g id="g372"><g id="g374"><g id="g376" transform="scale(-1)"><g id="g380" transform="rotate(180,25.4165,32.142)"><g id="g384" transform="translate(107.26,-87.808)"><g id="g386"><text id="text390" style="font-variant:normal;font-weight:400;font-size:9.96259975px;font-family:'Open Sans';-inkscape-font-specification:OpenSans;writing-mode:lr-tb;fill:#000;fill-opacity:1;fill-rule:nonzero;stroke:none" transform="matrix(1,0,0,-1,50.833,64.284)"><tspan id="tspan388" x="0 3.278 8.976" y="0">[5]</tspan></text></g></g></g></g></g></g><g id="g394"><g id="g396"><g id="g398" transform="scale(-1)"><g id="g402" transform="rotate(180,25.4165,32.142)"><g id="g406" transform="translate(87.724,-116.155)"><g id="g408"><text id="text412" style="font-variant:normal;font-weight:400;font-size:9.96259975px;font-family:'Open Sans';-inkscape-font-specification:OpenSans;writing-mode:lr-tb;fill:#000;fill-opacity:1;fill-rule:nonzero;stroke:none" transform="matrix(1,0,0,-1,50.833,64.284)"><tspan id="tspan410" x="0 3.278 8.976 13.997 19.696" y="0">[1,5]</tspan></text></g></g></g></g></g></g><g id="g416"><g id="g418"><g id="g420" transform="scale(-1)"><g id="g424" transform="rotate(180,25.4165,32.142)"><g id="g428" transform="translate(54.013,-144.502)"><g id="g430"><text id="text434" style="font-variant:normal;font-weight:400;font-size:9.96259975px;font-family:'Open Sans';-inkscape-font-specification:OpenSans;writing-mode:lr-tb;fill:#000;fill-opacity:1;fill-rule:nonzero;stroke:none" transform="matrix(1,0,0,-1,50.833,64.284)"><tspan id="tspan432" x="0 3.278 8.976 13.997 19.696 24.727 30.426" y="0">[1,5,7]</tspan></text></g></g></g></g></g></g><path id="path438" style="fill:none;stroke:#000;stroke-width:.3985;stroke-linecap:butt;stroke-linejoin:miter;stroke-miterlimit:10;stroke-dasharray:none;stroke-opacity:1" d="M -19.78484,-7.915 -47.75243,-19.1001"/><g id="g440" transform="matrix(-0.92847,-0.3713,0.3713,-0.92847,-47.75241,-19.1001)"><g id="g442"><path id="path444" style="fill:#000;fill-opacity:1;fill-rule:nonzero;stroke:none" d="M 3.58653,0 C 2.52383,0.19925 0.797,0.797 -0.3985,1.49438 V -1.49438 C 0.797,-0.797 2.52383,-0.19925 3.58653,0"/></g></g><path id="path446" style="fill:none;stroke:#000;stroke-width:.3985;stroke-linecap:butt;stroke-linejoin:miter;stroke-miterlimit:10;stroke-dasharray:none;stroke-opacity:1" d="M 19.78459,-7.915 47.88011,-19.15117"/><g id="g448" transform="matrix(0.92847,-0.3713,0.3713,0.92847,47.8801,-19.15117)"><g id="g450"><path id="path452" style="fill:#000;fill-opacity:1;fill-rule:nonzero;stroke:none" d="M 3.58653,0 C 2.52383,0.19925 0.797,0.797 -0.3985,1.49438 V -1.49438 C 0.797,-0.797 2.52383,-0.19925 3.58653,0"/></g></g><path id="path454" style="fill:none;stroke:#000;stroke-width:.3985;stroke-linecap:butt;stroke-linejoin:miter;stroke-miterlimit:10;stroke-dasharray:none;stroke-opacity:1" d="m -78.78091,-36.26181 -9.9829,-9.981"/><g id="g456" transform="matrix(-0.70715,-0.70703,0.70703,-0.70715,-88.7638,-46.24281)"><g id="g458"><path id="path460" style="fill:#000;fill-opacity:1;fill-rule:nonzero;stroke:none" d="M 3.58653,0 C 2.52383,0.19925 0.797,0.797 -0.3985,1.49438 V -1.49438 C 0.797,-0.797 2.52383,-0.19925 3.58653,0"/></g></g><path id="path462" style="fill:none;stroke:#000;stroke-width:.3985;stroke-linecap:butt;stroke-linejoin:miter;stroke-miterlimit:10;stroke-dasharray:none;stroke-opacity:1" d="m -62.95311,-36.26181 9.98291,-9.981"/><g id="g464" transform="matrix(0.70715,-0.70703,0.70703,0.70715,-52.97021,-46.24281)"><g id="g466"><path id="path468" style="fill:#000;fill-opacity:1;fill-rule:nonzero;stroke:none" d="M 3.58653,0 C 2.52383,0.19925 0.797,0.797 -0.3985,1.49438 V -1.49438 C 0.797,-0.797 2.52383,-0.19925 3.58653,0"/></g></g><path id="path470" style="fill:none;stroke:#000;stroke-width:.3985;stroke-linecap:butt;stroke-linejoin:miter;stroke-miterlimit:10;stroke-dasharray:none;stroke-opacity:1" d="M 64.9692,-36.21072 36.39331,-74.30748"/><g id="g472" transform="matrix(-0.60004,-0.79994,0.79994,-0.60004,36.39331,-74.30748)"><g id="g474"><path id="path476" style="fill:#000;fill-opacity:1;fill-rule:nonzero;stroke:none" d="M 3.58653,0 C 2.52383,0.19925 0.797,0.797 -0.3985,1.49438 V -1.49438 C 0.797,-0.797 2.52383,-0.19925 3.58653,0"/></g></g><path id="path478" style="fill:none;stroke:#000;stroke-width:.3985;stroke-linecap:butt;stroke-linejoin:miter;stroke-miterlimit:10;stroke-dasharray:none;stroke-opacity:1" d="M 78.72974,-36.21072 88.81488,-46.2939"/><g id="g480" transform="matrix(0.70715,-0.70703,0.70703,0.70715,88.81487,-46.2939)"><g id="g482"><path id="path484" style="fill:#000;fill-opacity:1;fill-rule:nonzero;stroke:none" d="M 3.58653,0 C 2.52383,0.19925 0.797,0.797 -0.3985,1.49438 V -1.49438 C 0.797,-0.797 2.52383,-0.19925 3.58653,0"/></g></g><path id="path486" style="fill:none;stroke:#000;stroke-width:.3985;stroke-linecap:butt;stroke-linejoin:miter;stroke-miterlimit:10;stroke-dasharray:none;stroke-opacity:1" d="m -103.17072,-64.60861 -4.67137,-9.34082"/><g id="g488" transform="matrix(-0.44725,-0.89435,0.89435,-0.44725,-107.84207,-73.94942)"><g id="g490"><path id="path492" style="fill:#000;fill-opacity:1;fill-rule:nonzero;stroke:none" d="M 3.58653,0 C 2.52383,0.19925 0.797,0.797 -0.3985,1.49438 V -1.49438 C 0.797,-0.797 2.52383,-0.19925 3.58653,0"/></g></g><path id="path494" style="fill:none;stroke:#000;stroke-width:.3985;stroke-linecap:butt;stroke-linejoin:miter;stroke-miterlimit:10;stroke-dasharray:none;stroke-opacity:1" d="m -95.25693,-64.60861 4.65555,-9.30921"/><g id="g496" transform="matrix(0.44725,-0.89435,0.89435,0.44725,-90.6014,-73.9178)"><g id="g498"><path id="path500" style="fill:#000;fill-opacity:1;fill-rule:nonzero;stroke:none" d="M 3.58653,0 C 2.52383,0.19925 0.797,0.797 -0.3985,1.49438 V -1.49438 C 0.797,-0.797 2.52383,-0.19925 3.58653,0"/></g></g><path id="path502" style="fill:none;stroke:#000;stroke-width:.3985;stroke-linecap:butt;stroke-linejoin:miter;stroke-miterlimit:10;stroke-dasharray:none;stroke-opacity:1" d="m -46.4771,-64.60861 -4.65556,-9.30921"/><g id="g504" transform="matrix(-0.44725,-0.89435,0.89435,-0.44725,-51.13264,-73.9178)"><g id="g506"><path id="path508" style="fill:#000;fill-opacity:1;fill-rule:nonzero;stroke:none" d="M 3.58653,0 C 2.52383,0.19925 0.797,0.797 -0.3985,1.49438 V -1.49438 C 0.797,-0.797 2.52383,-0.19925 3.58653,0"/></g></g><path id="path510" style="fill:none;stroke:#000;stroke-width:.3985;stroke-linecap:butt;stroke-linejoin:miter;stroke-miterlimit:10;stroke-dasharray:none;stroke-opacity:1" d="m -38.56331,-64.60861 4.65555,-9.30921"/><g id="g512" transform="matrix(0.44725,-0.89435,0.89435,0.44725,-33.90778,-73.9178)"><g id="g514"><path id="path516" style="fill:#000;fill-opacity:1;fill-rule:nonzero;stroke:none" d="M 3.58653,0 C 2.52383,0.19925 0.797,0.797 -0.3985,1.49438 V -1.49438 C 0.797,-0.797 2.52383,-0.19925 3.58653,0"/></g></g><path id="path518" style="fill:none;stroke:#000;stroke-width:.3985;stroke-linecap:butt;stroke-linejoin:miter;stroke-miterlimit:10;stroke-dasharray:none;stroke-opacity:1" d="M 95.28247,-64.55754 90.57584,-73.9689"/><g id="g520" transform="matrix(-0.44725,-0.89435,0.89435,-0.44725,90.57585,-73.96889)"><g id="g522"><path id="path524" style="fill:#000;fill-opacity:1;fill-rule:nonzero;stroke:none" d="M 3.58653,0 C 2.52383,0.19925 0.797,0.797 -0.3985,1.49438 V -1.49438 C 0.797,-0.797 2.52383,-0.19925 3.58653,0"/></g></g><path id="path526" style="fill:none;stroke:#000;stroke-width:.3985;stroke-linecap:butt;stroke-linejoin:miter;stroke-miterlimit:10;stroke-dasharray:none;stroke-opacity:1" d="m 103.14517,-64.55754 4.70663,-9.41136"/><g id="g528" transform="matrix(0.44725,-0.89435,0.89435,0.44725,107.85179,-73.96889)"><g id="g530"><path id="path532" style="fill:#000;fill-opacity:1;fill-rule:nonzero;stroke:none" d="M 3.58653,0 C 2.52383,0.19925 0.797,0.797 -0.3985,1.49438 V -1.49438 C 0.797,-0.797 2.52383,-0.19925 3.58653,0"/></g></g><path id="path534" style="fill:none;stroke:#000;stroke-width:.3985;stroke-linecap:butt;stroke-linejoin:miter;stroke-miterlimit:10;stroke-dasharray:none;stroke-opacity:1" d="m -109.44615,-92.9238 4.67137,-9.34083"/><g id="g536" transform="matrix(0.44725,-0.89435,0.89435,0.44725,-104.7748,-102.26462)"><g id="g538"><path id="path540" style="fill:#000;fill-opacity:1;fill-rule:nonzero;stroke:none" d="M 3.58653,0 C 2.52383,0.19925 0.797,0.797 -0.3985,1.49438 V -1.49438 C 0.797,-0.797 2.52383,-0.19925 3.58653,0"/></g></g><path id="path542" style="fill:none;stroke:#000;stroke-width:.3985;stroke-linecap:butt;stroke-linejoin:miter;stroke-miterlimit:10;stroke-dasharray:none;stroke-opacity:1" d="m -88.99731,-92.95543 -4.65555,-9.3092"/><g id="g544" transform="matrix(-0.44725,-0.89435,0.89435,-0.44725,-93.65285,-102.26462)"><g id="g546"><path id="path548" style="fill:#000;fill-opacity:1;fill-rule:nonzero;stroke:none" d="M 3.58653,0 C 2.52383,0.19925 0.797,0.797 -0.3985,1.49438 V -1.49438 C 0.797,-0.797 2.52383,-0.19925 3.58653,0"/></g></g><path id="path550" style="fill:none;stroke:#000;stroke-width:.3985;stroke-linecap:butt;stroke-linejoin:miter;stroke-miterlimit:10;stroke-dasharray:none;stroke-opacity:1" d="m -52.73672,-92.95543 4.65556,-9.3092"/><g id="g552" transform="matrix(0.44725,-0.89435,0.89435,0.44725,-48.08118,-102.26462)"><g id="g554"><path id="path556" style="fill:#000;fill-opacity:1;fill-rule:nonzero;stroke:none" d="M 3.58653,0 C 2.52383,0.19925 0.797,0.797 -0.3985,1.49438 V -1.49438 C 0.797,-0.797 2.52383,-0.19925 3.58653,0"/></g></g><path id="path558" style="fill:none;stroke:#000;stroke-width:.3985;stroke-linecap:butt;stroke-linejoin:miter;stroke-miterlimit:10;stroke-dasharray:none;stroke-opacity:1" d="m -32.3037,-92.95543 -4.65554,-9.3092"/><g id="g560" transform="matrix(-0.44725,-0.89435,0.89435,-0.44725,-36.95923,-102.26462)"><g id="g562"><path id="path564" style="fill:#000;fill-opacity:1;fill-rule:nonzero;stroke:none" d="M 3.58653,0 C 2.52383,0.19925 0.797,0.797 -0.3985,1.49438 V -1.49438 C 0.797,-0.797 2.52383,-0.19925 3.58653,0"/></g></g><path id="path566" style="fill:none;stroke:#000;stroke-width:.3985;stroke-linecap:butt;stroke-linejoin:miter;stroke-miterlimit:10;stroke-dasharray:none;stroke-opacity:1" d="m 88.97177,-92.90434 4.70663,-9.41136"/><g id="g568" transform="matrix(0.44725,-0.89435,0.89435,0.44725,93.67839,-102.31569)"><g id="g570"><path id="path572" style="fill:#000;fill-opacity:1;fill-rule:nonzero;stroke:none" d="M 3.58653,0 C 2.52383,0.19925 0.797,0.797 -0.3985,1.49438 V -1.49438 C 0.797,-0.797 2.52383,-0.19925 3.58653,0"/></g></g><path id="path574" style="fill:none;stroke:#000;stroke-width:.3985;stroke-linecap:butt;stroke-linejoin:miter;stroke-miterlimit:10;stroke-dasharray:none;stroke-opacity:1" d="m 109.45587,-92.90434 -4.70663,-9.41136"/><g id="g576" transform="matrix(-0.44725,-0.89435,0.89435,-0.44725,104.74925,-102.31569)"><g id="g578"><path id="path580" style="fill:#000;fill-opacity:1;fill-rule:nonzero;stroke:none" d="M 3.58653,0 C 2.52383,0.19925 0.797,0.797 -0.3985,1.49438 V -1.49438 C 0.797,-0.797 2.52383,-0.19925 3.58653,0"/></g></g><path id="path582" style="fill:none;stroke:#000;stroke-width:.3985;stroke-linecap:butt;stroke-linejoin:miter;stroke-miterlimit:10;stroke-dasharray:none;stroke-opacity:1" d="m -91.29991,-121.30223 9.98289,-9.98102"/><g id="g584" transform="matrix(0.70715,-0.70703,0.70703,0.70715,-81.31703,-131.28325)"><g id="g586"><path id="path588" style="fill:#000;fill-opacity:1;fill-rule:nonzero;stroke:none" d="M 3.58653,0 C 2.52383,0.19925 0.797,0.797 -0.3985,1.49438 V -1.49438 C 0.797,-0.797 2.52383,-0.19925 3.58653,0"/></g></g><path id="path590" style="fill:none;stroke:#000;stroke-width:.3985;stroke-linecap:butt;stroke-linejoin:miter;stroke-miterlimit:10;stroke-dasharray:none;stroke-opacity:1" d="m -50.43411,-121.30223 -9.98289,-9.98102"/><g id="g592" transform="matrix(-0.70715,-0.70703,0.70703,-0.70715,-60.41699,-131.28325)"><g id="g594"><path id="path596" style="fill:#000;fill-opacity:1;fill-rule:nonzero;stroke:none" d="M 3.58653,0 C 2.52383,0.19925 0.797,0.797 -0.3985,1.49438 V -1.49438 C 0.797,-0.797 2.52383,-0.19925 3.58653,0"/></g></g><path id="path598" style="fill:none;stroke:#000;stroke-width:.3985;stroke-linecap:butt;stroke-linejoin:miter;stroke-miterlimit:10;stroke-dasharray:none;stroke-opacity:1" d="M 91.3511,-121.25116 81.26596,-131.33432"/><g id="g600" transform="matrix(-0.70715,-0.70703,0.70703,-0.70715,81.26598,-131.33432)"><g id="g602"><path id="path604" style="fill:#000;fill-opacity:1;fill-rule:nonzero;stroke:none" d="M 3.58653,0 C 2.52383,0.19925 0.797,0.797 -0.3985,1.49438 V -1.49438 C 0.797,-0.797 2.52383,-0.19925 3.58653,0"/></g></g><path id="path606" style="fill:none;stroke:#000;stroke-width:.3985;stroke-linecap:butt;stroke-linejoin:miter;stroke-miterlimit:10;stroke-dasharray:none;stroke-opacity:1" d="M 34.24463,-92.90434 62.8205,-131.0011"/><g id="g608" transform="matrix(0.60004,-0.79994,0.79994,0.60004,62.8205,-131.0011)"><g id="g610"><path id="path612" style="fill:#000;fill-opacity:1;fill-rule:nonzero;stroke:none" d="M 3.58653,0 C 2.52383,0.19925 0.797,0.797 -0.3985,1.49438 V -1.49438 C 0.797,-0.797 2.52383,-0.19925 3.58653,0"/></g></g><path id="path614" style="fill:none;stroke:#000;stroke-width:.3985;stroke-linecap:butt;stroke-linejoin:miter;stroke-miterlimit:10;stroke-dasharray:none;stroke-opacity:1" d="m -51.08217,-149.64905 27.96761,-11.18509"/><g id="g616" transform="matrix(0.92847,-0.3713,0.3713,0.92847,-23.11458,-160.83414)"><g id="g618"><path id="path620" style="fill:#000;fill-opacity:1;fill-rule:nonzero;stroke:none" d="M 3.58653,0 C 2.52383,0.19925 0.797,0.797 -0.3985,1.49438 V -1.49438 C 0.797,-0.797 2.52383,-0.19925 3.58653,0"/></g></g><path id="path622" style="fill:none;stroke:#000;stroke-width:.3985;stroke-linecap:butt;stroke-linejoin:miter;stroke-miterlimit:10;stroke-dasharray:none;stroke-opacity:1" d="M 51.20985,-149.59796 23.11456,-160.83414"/><g id="g624" transform="matrix(-0.92847,-0.3713,0.3713,-0.92847,23.11458,-160.83414)"><g id="g626"><path id="path628" style="fill:#000;fill-opacity:1;fill-rule:nonzero;stroke:none" d="M 3.58653,0 C 2.52383,0.19925 0.797,0.797 -0.3985,1.49438 V -1.49438 C 0.797,-0.797 2.52383,-0.19925 3.58653,0"/></g></g></g></g></g></g></g></svg>